  0
SECTION
  2
HEADER
  9
$ACADVER
  1
AC1014
  9
$HANDSEED
  5
FFFF
  9
$INSUNITS
 70
     4
  9
$MEASUREMENT
 70
     1
  0
ENDSEC
  0
SECTION
  2
TABLES
  0
TABLE
  2
VPORT
  5
8
330
0
100
AcDbSymbolTable
 70
     4
  0
VPORT
  5
2E
330
8
100
AcDbSymbolTableRecord
100
AcDbViewportTableRecord
  2
*ACTIVE
 70
     0
 10
0.0
 20
0.0
 11
1.0
 21
1.0
 12
210.0
 22
148.5
 13
0.0
 23
0.0
 14
10.0
 24
10.0
 15
10.0
 25
10.0
 16
0.0
 26
0.0
 36
1.0
 17
0.0
 27
0.0
 37
0.0
 40
341.0
 41
1.24
 42
50.0
 43
0.0
 44
0.0
 50
0.0
 51
0.0
 71
     0
 72
   100
 73
     1
 74
     3
 75
     0
 76
     0
 77
     0
 78
     0
  0
ENDTAB
  0
TABLE
  2
LTYPE
  5
5
330
0
100
AcDbSymbolTable
 70
     1
  0
LTYPE
  5
14
330
5
100
AcDbSymbolTableRecord
100
AcDbLinetypeTableRecord
  2
BYBLOCK
 70
     0
  3

 72
    65
 73
     0
 40
0.0
  0
LTYPE
  5
15
330
5
100
AcDbSymbolTableRecord
100
AcDbLinetypeTableRecord
  2
BYLAYER
 70
     0
  3

 72
    65
 73
     0
 40
0.0
  0
LTYPE
  5
16
330
5
100
AcDbSymbolTableRecord
100
AcDbLinetypeTableRecord
  2
CONTINUOUS
 70
     0
  3
Solid line
 72
    65
 73
     0
 40
0.0
  0
ENDTAB
  0
TABLE
  2
LAYER
  5
2
100
AcDbSymbolTable
 70
2
  0
LAYER
  5
50
100
AcDbSymbolTableRecord
100
AcDbLayerTableRecord
  2
0
 70
0
  6
CONTINUOUS
  0
LAYER
  5
51
100
AcDbSymbolTableRecord
100
AcDbLayerTableRecord
  2
Layer_1
 70
0
  6
CONTINUOUS
  0
ENDTAB
  0
TABLE
  2
STYLE
  5
3
330
0
100
AcDbSymbolTable
 70
     1
  0
STYLE
  5
11
330
3
100
AcDbSymbolTableRecord
100
AcDbTextStyleTableRecord
  2
STANDARD
 70
     0
 40
0.0
 41
1.0
 50
0.0
 71
     0
 42
2.5
  3
txt
  4

  0
ENDTAB
  0
TABLE
  2
VIEW
  5
6
330
0
100
AcDbSymbolTable
 70
     0
  0
ENDTAB
  0
TABLE
  2
UCS
  5
7
330
0
100
AcDbSymbolTable
 70
     0
  0
ENDTAB
  0
TABLE
  2
APPID
  5
9
330
0
100
AcDbSymbolTable
 70
     2
  0
APPID
  5
12
330
9
100
AcDbSymbolTableRecord
100
AcDbRegAppTableRecord
  2
ACAD
 70
     0
  0
ENDTAB
  0
TABLE
  2
DIMSTYLE
  5
A
330
0
100
AcDbSymbolTable
 70
     1
  0
DIMSTYLE
105
27
330
A
100
AcDbSymbolTableRecord
100
AcDbDimStyleTableRecord
  2
ISO-25
 70
     0
  3

  4

  5

  6

  7

 40
1.0
 41
2.5
 42
0.625
 43
3.75
 44
1.25
 45
0.0
 46
0.0
 47
0.0
 48
0.0
140
2.5
141
2.5
142
0.0
143
0.03937007874016
144
1.0
145
0.0
146
1.0
147
0.625
 71
     0
 72
     0
 73
     0
 74
     0
 75
     0
 76
     0
 77
     1
 78
     8
170
     0
171
     3
172
     1
173
     0
174
     0
175
     0
176
     0
177
     0
178
     0
270
     2
271
     2
272
     2
273
     2
274
     3
340
11
275
     0
280
     0
281
     0
282
     0
283
     0
284
     8
285
     0
286
     0
287
     3
288
     0
  0
ENDTAB
  0
TABLE
  2
BLOCK_RECORD
  5
1
330
0
100
AcDbSymbolTable
 70
     1
  0
BLOCK_RECORD
  5
1F
330
1
100
AcDbSymbolTableRecord
100
AcDbBlockTableRecord
  2
*MODEL_SPACE
  0
BLOCK_RECORD
  5
1B
330
1
100
AcDbSymbolTableRecord
100
AcDbBlockTableRecord
  2
*PAPER_SPACE
  0
ENDTAB
  0
ENDSEC
  0
SECTION
  2
BLOCKS
  0
BLOCK
  5
20
330
1F
100
AcDbEntity
  8
0
100
AcDbBlockBegin
  2
*MODEL_SPACE
 70
     0
 10
0.0
 20
0.0
 30
0.0
  3
*MODEL_SPACE
  1

  0
ENDBLK
  5
21
330
1F
100
AcDbEntity
  8
0
100
AcDbBlockEnd
  0
BLOCK
  5
1C
330
1B
100
AcDbEntity
 67
     1
  8
0
100
AcDbBlockBegin
  2
*PAPER_SPACE
  1

  0
ENDBLK
  5
1D
330
1B
100
AcDbEntity
 67
     1
  8
0
100
AcDbBlockEnd
  0
ENDSEC
  0
SECTION
  2
ENTITIES
  0
SPLINE
  5
100
100
AcDbEntity
  8
Layer_1
 62
7
100
AcDbSpline
 70
8
 71
3
 72
8
 73
4
 74
0
 40
0
 40
0
 40
0
 40
0
 40
1
 40
1
 40
1
 40
1
 10
-44.483249
 20
283.394931
 30
0.0
 10
-46.682424
 20
284.198493
 30
0.0
 10
-48.594405
 20
284.930504
 30
0.0
 10
-48.732095
 20
285.021625
 30
0.0
  0
SPLINE
  5
101
100
AcDbEntity
  8
Layer_1
 62
7
100
AcDbSpline
 70
8
 71
3
 72
8
 73
4
 74
0
 40
0
 40
0
 40
0
 40
0
 40
1
 40
1
 40
1
 40
1
 10
-48.732095
 20
285.021625
 30
0.0
 10
-48.909543
 20
285.139047
 30
0.0
 10
-48.982440
 20
286.020900
 30
0.0
 10
-48.982440
 20
288.050099
 30
0.0
  0
SPLINE
  5
102
100
AcDbEntity
  8
Layer_1
 62
7
100
AcDbSpline
 70
8
 71
3
 72
8
 73
4
 74
0
 40
0
 40
0
 40
0
 40
0
 40
1
 40
1
 40
1
 40
1
 10
-48.982440
 20
288.050099
 30
0.0
 10
-48.982440
 20
290.508815
 30
0.0
 10
-49.040240
 20
291.026223
 30
0.0
 10
-49.391967
 20
291.715663
 30
0.0
  0
SPLINE
  5
103
100
AcDbEntity
  8
Layer_1
 62
7
100
AcDbSpline
 70
8
 71
3
 72
8
 73
4
 74
0
 40
0
 40
0
 40
0
 40
0
 40
1
 40
1
 40
1
 40
1
 10
-49.391967
 20
291.715663
 30
0.0
 10
-49.617208
 20
292.157179
 30
0.0
 10
-49.801495
 20
292.638626
 30
0.0
 10
-49.801495
 20
292.785568
 30
0.0
  0
SPLINE
  5
104
100
AcDbEntity
  8
Layer_1
 62
7
100
AcDbSpline
 70
8
 71
3
 72
8
 73
4
 74
0
 40
0
 40
0
 40
0
 40
0
 40
1
 40
1
 40
1
 40
1
 10
-49.801495
 20
292.785568
 30
0.0
 10
-49.801495
 20
292.932500
 30
0.0
 10
-49.985783
 20
293.396557
 30
0.0
 10
-50.211022
 20
293.816813
 30
0.0
  0
SPLINE
  5
105
100
AcDbEntity
  8
Layer_1
 62
7
100
AcDbSpline
 70
8
 71
3
 72
8
 73
4
 74
0
 40
0
 40
0
 40
0
 40
0
 40
1
 40
1
 40
1
 40
1
 10
-50.211022
 20
293.816813
 30
0.0
 10
-50.436263
 20
294.237069
 30
0.0
 10
-50.620549
 20
294.754287
 30
0.0
 10
-50.620549
 20
294.966190
 30
0.0
  0
SPLINE
  5
106
100
AcDbEntity
  8
Layer_1
 62
7
100
AcDbSpline
 70
8
 71
3
 72
8
 73
4
 74
0
 40
0
 40
0
 40
0
 40
0
 40
1
 40
1
 40
1
 40
1
 10
-50.620549
 20
294.966190
 30
0.0
 10
-50.620549
 20
295.178083
 30
0.0
 10
-50.754364
 20
295.671720
 30
0.0
 10
-50.917914
 20
296.063156
 30
0.0
  0
SPLINE
  5
107
100
AcDbEntity
  8
Layer_1
 62
7
100
AcDbSpline
 70
8
 71
3
 72
8
 73
4
 74
0
 40
0
 40
0
 40
0
 40
0
 40
1
 40
1
 40
1
 40
1
 10
-50.917914
 20
296.063156
 30
0.0
 10
-51.488272
 20
297.428246
 30
0.0
 10
-50.904214
 20
302.977857
 30
0.0
 10
-50.190186
 20
302.977857
 30
0.0
  0
SPLINE
  5
108
100
AcDbEntity
  8
Layer_1
 62
7
100
AcDbSpline
 70
8
 71
3
 72
8
 73
4
 74
0
 40
0
 40
0
 40
0
 40
0
 40
1
 40
1
 40
1
 40
1
 10
-50.190186
 20
302.977857
 30
0.0
 10
-50.079360
 20
302.977857
 30
0.0
 10
-50.064906
 20
302.740233
 30
0.0
 10
-50.155926
 20
302.414739
 30
0.0
  0
SPLINE
  5
109
100
AcDbEntity
  8
Layer_1
 62
7
100
AcDbSpline
 70
8
 71
3
 72
8
 73
4
 74
0
 40
0
 40
0
 40
0
 40
0
 40
1
 40
1
 40
1
 40
1
 10
-50.155926
 20
302.414739
 30
0.0
 10
-50.383077
 20
301.602477
 30
0.0
 10
-50.275885
 20
299.936853
 30
0.0
 10
-49.934123
 20
298.968218
 30
0.0
  0
SPLINE
  5
10a
100
AcDbEntity
  8
Layer_1
 62
7
100
AcDbSpline
 70
8
 71
3
 72
8
 73
4
 74
0
 40
0
 40
0
 40
0
 40
0
 40
1
 40
1
 40
1
 40
1
 10
-49.934123
 20
298.968218
 30
0.0
 10
-49.759620
 20
298.473641
 30
0.0
 10
-49.681674
 20
297.756091
 30
0.0
 10
-49.743176
 20
297.210443
 30
0.0
  0
SPLINE
  5
10b
100
AcDbEntity
  8
Layer_1
 62
7
100
AcDbSpline
 70
8
 71
3
 72
8
 73
4
 74
0
 40
0
 40
0
 40
0
 40
0
 40
1
 40
1
 40
1
 40
1
 10
-49.743176
 20
297.210443
 30
0.0
 10
-49.861867
 20
296.157397
 30
0.0
 10
-49.582199
 20
295.492958
 30
0.0
 10
-48.537645
 20
294.346311
 30
0.0
  0
SPLINE
  5
10c
100
AcDbEntity
  8
Layer_1
 62
7
100
AcDbSpline
 70
8
 71
3
 72
8
 73
4
 74
0
 40
0
 40
0
 40
0
 40
0
 40
1
 40
1
 40
1
 40
1
 10
-48.537645
 20
294.346311
 30
0.0
 10
-48.162869
 20
293.934905
 30
0.0
 10
-47.690683
 20
293.358997
 30
0.0
 10
-47.488340
 20
293.066512
 30
0.0
  0
SPLINE
  5
10d
100
AcDbEntity
  8
Layer_1
 62
7
100
AcDbSpline
 70
8
 71
3
 72
8
 73
4
 74
0
 40
0
 40
0
 40
0
 40
0
 40
1
 40
1
 40
1
 40
1
 10
-47.488340
 20
293.066512
 30
0.0
 10
-47.285997
 20
292.774038
 30
0.0
 10
-46.986788
 20
292.534735
 30
0.0
 10
-46.823433
 20
292.534735
 30
0.0
  0
SPLINE
  5
10e
100
AcDbEntity
  8
Layer_1
 62
7
100
AcDbSpline
 70
8
 71
3
 72
8
 73
4
 74
0
 40
0
 40
0
 40
0
 40
0
 40
1
 40
1
 40
1
 40
1
 10
-46.823433
 20
292.534735
 30
0.0
 10
-46.660076
 20
292.534735
 30
0.0
 10
-45.964438
 20
292.121019
 30
0.0
 10
-45.277570
 20
291.615361
 30
0.0
  0
SPLINE
  5
10f
100
AcDbEntity
  8
Layer_1
 62
7
100
AcDbSpline
 70
8
 71
3
 72
8
 73
4
 74
0
 40
0
 40
0
 40
0
 40
0
 40
1
 40
1
 40
1
 40
1
 10
-45.277570
 20
291.615361
 30
0.0
 10
-42.555565
 20
289.611502
 30
0.0
 10
-39.776904
 20
289.587892
 30
0.0
 10
-37.542626
 20
291.549660
 30
0.0
  0
SPLINE
  5
110
100
AcDbEntity
  8
Layer_1
 62
7
100
AcDbSpline
 70
8
 71
3
 72
8
 73
4
 74
0
 40
0
 40
0
 40
0
 40
0
 40
1
 40
1
 40
1
 40
1
 10
-37.542626
 20
291.549660
 30
0.0
 10
-36.456380
 20
292.503414
 30
0.0
 10
-35.922639
 20
294.290410
 30
0.0
 10
-36.266675
 20
295.821633
 30
0.0
  0
SPLINE
  5
111
100
AcDbEntity
  8
Layer_1
 62
7
100
AcDbSpline
 70
8
 71
3
 72
8
 73
4
 74
0
 40
0
 40
0
 40
0
 40
0
 40
1
 40
1
 40
1
 40
1
 10
-36.266675
 20
295.821633
 30
0.0
 10
-36.489807
 20
296.814727
 30
0.0
 10
-36.962810
 20
297.363355
 30
0.0
 10
-37.764631
 20
297.559068
 30
0.0
  0
SPLINE
  5
112
100
AcDbEntity
  8
Layer_1
 62
7
100
AcDbSpline
 70
8
 71
3
 72
8
 73
4
 74
0
 40
0
 40
0
 40
0
 40
0
 40
1
 40
1
 40
1
 40
1
 10
-37.764631
 20
297.559068
 30
0.0
 10
-38.257491
 20
297.679360
 30
0.0
 10
-38.493652
 20
297.519667
 30
0.0
 10
-39.841149
 20
296.154497
 30
0.0
  0
SPLINE
  5
113
100
AcDbEntity
  8
Layer_1
 62
7
100
AcDbSpline
 70
8
 71
3
 72
8
 73
4
 74
0
 40
0
 40
0
 40
0
 40
0
 40
1
 40
1
 40
1
 40
1
 10
-39.841149
 20
296.154497
 30
0.0
 10
-41.180556
 20
294.797568
 30
0.0
 10
-41.475470
 20
294.597115
 30
0.0
 10
-42.318369
 20
294.470713
 30
0.0
  0
SPLINE
  5
114
100
AcDbEntity
  8
Layer_1
 62
7
100
AcDbSpline
 70
8
 71
3
 72
8
 73
4
 74
0
 40
0
 40
0
 40
0
 40
0
 40
1
 40
1
 40
1
 40
1
 10
-42.318369
 20
294.470713
 30
0.0
 10
-43.026578
 20
294.364501
 30
0.0
 10
-43.476955
 20
294.418212
 30
0.0
 10
-44.051787
 20
294.677436
 30
0.0
  0
SPLINE
  5
115
100
AcDbEntity
  8
Layer_1
 62
7
100
AcDbSpline
 70
8
 71
3
 72
8
 73
4
 74
0
 40
0
 40
0
 40
0
 40
0
 40
1
 40
1
 40
1
 40
1
 10
-44.051787
 20
294.677436
 30
0.0
 10
-44.478922
 20
294.870049
 30
0.0
 10
-45.040378
 20
294.996580
 30
0.0
 10
-45.299464
 20
294.958610
 30
0.0
  0
SPLINE
  5
116
100
AcDbEntity
  8
Layer_1
 62
7
100
AcDbSpline
 70
8
 71
3
 72
8
 73
4
 74
0
 40
0
 40
0
 40
0
 40
0
 40
1
 40
1
 40
1
 40
1
 10
-45.299464
 20
294.958610
 30
0.0
 10
-45.669896
 20
294.904309
 30
0.0
 10
-45.812808
 20
295.020811
 30
0.0
 10
-45.968421
 20
295.503858
 30
0.0
  0
SPLINE
  5
117
100
AcDbEntity
  8
Layer_1
 62
7
100
AcDbSpline
 70
8
 71
3
 72
8
 73
4
 74
0
 40
0
 40
0
 40
0
 40
0
 40
1
 40
1
 40
1
 40
1
 10
-45.968421
 20
295.503858
 30
0.0
 10
-46.077260
 20
295.841733
 30
0.0
 10
-46.485290
 20
296.532813
 30
0.0
 10
-46.875154
 20
297.039620
 30
0.0
  0
SPLINE
  5
118
100
AcDbEntity
  8
Layer_1
 62
7
100
AcDbSpline
 70
8
 71
3
 72
8
 73
4
 74
0
 40
0
 40
0
 40
0
 40
0
 40
1
 40
1
 40
1
 40
1
 10
-46.875154
 20
297.039620
 30
0.0
 10
-47.557129
 20
297.926143
 30
0.0
 10
-47.580750
 20
298.015405
 30
0.0
 10
-47.498275
 20
299.394435
 30
0.0
  0
SPLINE
  5
119
100
AcDbEntity
  8
Layer_1
 62
7
100
AcDbSpline
 70
8
 71
3
 72
8
 73
4
 74
0
 40
0
 40
0
 40
0
 40
0
 40
1
 40
1
 40
1
 40
1
 10
-47.498275
 20
299.394435
 30
0.0
 10
-47.391996
 20
301.171521
 30
0.0
 10
-46.710338
 20
302.980407
 30
0.0
 10
-45.729763
 20
304.087463
 30
0.0
  0
SPLINE
  5
11a
100
AcDbEntity
  8
Layer_1
 62
7
100
AcDbSpline
 70
8
 71
3
 72
8
 73
4
 74
0
 40
0
 40
0
 40
0
 40
0
 40
1
 40
1
 40
1
 40
1
 10
-45.729763
 20
304.087463
 30
0.0
 10
-45.322642
 20
304.547090
 30
0.0
 10
-44.888404
 20
305.107438
 30
0.0
 10
-44.764788
 20
305.332691
 30
0.0
  0
SPLINE
  5
11b
100
AcDbEntity
  8
Layer_1
 62
7
100
AcDbSpline
 70
8
 71
3
 72
8
 73
4
 74
0
 40
0
 40
0
 40
0
 40
0
 40
1
 40
1
 40
1
 40
1
 10
-44.764788
 20
305.332691
 30
0.0
 10
-44.641172
 20
305.557925
 30
0.0
 10
-43.965080
 20
306.041692
 30
0.0
 10
-43.262361
 20
306.407717
 30
0.0
  0
SPLINE
  5
11c
100
AcDbEntity
  8
Layer_1
 62
7
100
AcDbSpline
 70
8
 71
3
 72
8
 73
4
 74
0
 40
0
 40
0
 40
0
 40
0
 40
1
 40
1
 40
1
 40
1
 10
-43.262361
 20
306.407717
 30
0.0
 10
-42.060368
 20
307.033786
 30
0.0
 10
-41.861431
 20
307.072677
 30
0.0
 10
-39.903752
 20
307.064287
 30
0.0
  0
SPLINE
  5
11d
100
AcDbEntity
  8
Layer_1
 62
7
100
AcDbSpline
 70
8
 71
3
 72
8
 73
4
 74
0
 40
0
 40
0
 40
0
 40
0
 40
1
 40
1
 40
1
 40
1
 10
-39.903752
 20
307.064287
 30
0.0
 10
-37.958655
 20
307.056287
 30
0.0
 10
-37.048401
 20
306.949175
 30
0.0
 10
-35.591065
 20
306.558369
 30
0.0
  0
SPLINE
  5
11e
100
AcDbEntity
  8
Layer_1
 62
7
100
AcDbSpline
 70
8
 71
3
 72
8
 73
4
 74
0
 40
0
 40
0
 40
0
 40
0
 40
1
 40
1
 40
1
 40
1
 10
-35.591065
 20
306.558369
 30
0.0
 10
-34.523353
 20
306.272045
 30
0.0
 10
-35.207950
 20
306.856424
 30
0.0
 10
-36.897346
 20
307.673406
 30
0.0
  0
SPLINE
  5
11f
100
AcDbEntity
  8
Layer_1
 62
7
100
AcDbSpline
 70
8
 71
3
 72
8
 73
4
 74
0
 40
0
 40
0
 40
0
 40
0
 40
1
 40
1
 40
1
 40
1
 10
-36.897346
 20
307.673406
 30
0.0
 10
-38.407497
 20
308.403706
 30
0.0
 10
-38.614455
 20
308.447297
 30
0.0
 10
-41.191459
 20
308.577719
 30
0.0
  0
SPLINE
  5
120
100
AcDbEntity
  8
Layer_1
 62
7
100
AcDbSpline
 70
8
 71
3
 72
8
 73
4
 74
0
 40
0
 40
0
 40
0
 40
0
 40
1
 40
1
 40
1
 40
1
 10
-41.191459
 20
308.577719
 30
0.0
 10
-43.717553
 20
308.705571
 30
0.0
 10
-43.962924
 20
308.684430
 30
0.0
 10
-44.853776
 20
308.262074
 30
0.0
  0
LINE
  5
121
100
AcDbEntity
  8
Layer_1
 62
7
100
AcDbLine
 10
-44.853776
 20
308.262074
 30
0.0
 11
-45.808598
 21
307.809398
 31
0.0
  0
LINE
  5
122
100
AcDbEntity
  8
Layer_1
 62
7
100
AcDbLine
 10
-45.808598
 20
307.809398
 30
0.0
 11
-44.682399
 21
307.697266
 31
0.0
  0
LINE
  5
123
100
AcDbEntity
  8
Layer_1
 62
7
100
AcDbLine
 10
-44.682399
 20
307.697266
 30
0.0
 11
-43.556199
 21
307.585124
 31
0.0
  0
LINE
  5
124
100
AcDbEntity
  8
Layer_1
 62
7
100
AcDbLine
 10
-43.556199
 20
307.585124
 30
0.0
 11
-44.887162
 21
306.901544
 31
0.0
  0
SPLINE
  5
125
100
AcDbEntity
  8
Layer_1
 62
7
100
AcDbSpline
 70
8
 71
3
 72
8
 73
4
 74
0
 40
0
 40
0
 40
0
 40
0
 40
1
 40
1
 40
1
 40
1
 10
-44.887162
 20
306.901544
 30
0.0
 10
-46.710701
 20
305.964991
 30
0.0
 10
-47.265449
 20
305.392882
 30
0.0
 10
-48.192250
 20
303.492995
 30
0.0
  0
LINE
  5
126
100
AcDbEntity
  8
Layer_1
 62
7
100
AcDbLine
 10
-48.192250
 20
303.492995
 30
0.0
 11
-48.989799
 21
301.858081
 31
0.0
  0
LINE
  5
127
100
AcDbEntity
  8
Layer_1
 62
7
100
AcDbLine
 10
-48.989799
 20
301.858081
 30
0.0
 11
-48.934929
 21
306.974035
 31
0.0
  0
LINE
  5
128
100
AcDbEntity
  8
Layer_1
 62
7
100
AcDbLine
 10
-48.934929
 20
306.974035
 30
0.0
 11
-48.880059
 21
312.090000
 31
0.0
  0
LINE
  5
129
100
AcDbEntity
  8
Layer_1
 62
7
100
AcDbLine
 10
-48.880059
 20
312.090000
 30
0.0
 11
-40.177603
 21
312.090000
 31
0.0
  0
LINE
  5
12a
100
AcDbEntity
  8
Layer_1
 62
7
100
AcDbLine
 10
-40.177603
 20
312.090000
 30
0.0
 11
-31.475147
 21
312.090000
 31
0.0
  0
LINE
  5
12b
100
AcDbEntity
  8
Layer_1
 62
7
100
AcDbLine
 10
-31.475147
 20
312.090000
 30
0.0
 11
-31.352541
 21
308.711341
 31
0.0
  0
SPLINE
  5
12c
100
AcDbEntity
  8
Layer_1
 62
7
100
AcDbSpline
 70
8
 71
3
 72
8
 73
4
 74
0
 40
0
 40
0
 40
0
 40
0
 40
1
 40
1
 40
1
 40
1
 10
-31.352541
 20
308.711341
 30
0.0
 10
-31.218275
 20
305.011347
 30
0.0
 10
-31.172683
 20
304.772063
 30
0.0
 10
-29.948007
 20
301.339723
 30
0.0
  0
SPLINE
  5
12d
100
AcDbEntity
  8
Layer_1
 62
7
100
AcDbSpline
 70
8
 71
3
 72
8
 73
4
 74
0
 40
0
 40
0
 40
0
 40
0
 40
1
 40
1
 40
1
 40
1
 10
-29.948007
 20
301.339723
 30
0.0
 10
-29.139380
 20
299.073420
 30
0.0
 10
-29.112682
 20
298.919478
 30
0.0
 10
-29.237804
 20
297.244383
 30
0.0
  0
SPLINE
  5
12e
100
AcDbEntity
  8
Layer_1
 62
7
100
AcDbSpline
 70
8
 71
3
 72
8
 73
4
 74
0
 40
0
 40
0
 40
0
 40
0
 40
1
 40
1
 40
1
 40
1
 10
-29.237804
 20
297.244383
 30
0.0
 10
-29.309314
 20
296.287099
 30
0.0
 10
-29.422557
 20
295.413977
 30
0.0
 10
-29.489468
 20
295.304125
 30
0.0
  0
SPLINE
  5
12f
100
AcDbEntity
  8
Layer_1
 62
7
100
AcDbSpline
 70
8
 71
3
 72
8
 73
4
 74
0
 40
0
 40
0
 40
0
 40
0
 40
1
 40
1
 40
1
 40
1
 10
-29.489468
 20
295.304125
 30
0.0
 10
-29.556378
 20
295.194263
 30
0.0
 10
-29.725223
 20
295.701071
 30
0.0
 10
-29.864680
 20
296.430341
 30
0.0
  0
SPLINE
  5
130
100
AcDbEntity
  8
Layer_1
 62
7
100
AcDbSpline
 70
8
 71
3
 72
8
 73
4
 74
0
 40
0
 40
0
 40
0
 40
0
 40
1
 40
1
 40
1
 40
1
 10
-29.864680
 20
296.430341
 30
0.0
 10
-30.371523
 20
299.080850
 30
0.0
 10
-30.709625
 20
300.227847
 30
0.0
 10
-31.194312
 20
300.941027
 30
0.0
  0
SPLINE
  5
131
100
AcDbEntity
  8
Layer_1
 62
7
100
AcDbSpline
 70
8
 71
3
 72
8
 73
4
 74
0
 40
0
 40
0
 40
0
 40
0
 40
1
 40
1
 40
1
 40
1
 10
-31.194312
 20
300.941027
 30
0.0
 10
-32.274347
 20
302.530240
 30
0.0
 10
-33.242237
 20
303.546445
 30
0.0
 10
-33.783155
 20
303.659097
 30
0.0
  0
SPLINE
  5
132
100
AcDbEntity
  8
Layer_1
 62
7
100
AcDbSpline
 70
8
 71
3
 72
8
 73
4
 74
0
 40
0
 40
0
 40
0
 40
0
 40
1
 40
1
 40
1
 40
1
 10
-33.783155
 20
303.659097
 30
0.0
 10
-34.090431
 20
303.723098
 30
0.0
 10
-34.834634
 20
304.095783
 30
0.0
 10
-35.436938
 20
304.487289
 30
0.0
  0
SPLINE
  5
133
100
AcDbEntity
  8
Layer_1
 62
7
100
AcDbSpline
 70
8
 71
3
 72
8
 73
4
 74
0
 40
0
 40
0
 40
0
 40
0
 40
1
 40
1
 40
1
 40
1
 10
-35.436938
 20
304.487289
 30
0.0
 10
-36.331619
 20
305.068848
 30
0.0
 10
-36.805203
 20
305.224730
 30
0.0
 10
-38.024608
 20
305.338992
 30
0.0
  0
SPLINE
  5
134
100
AcDbEntity
  8
Layer_1
 62
7
100
AcDbSpline
 70
8
 71
3
 72
8
 73
4
 74
0
 40
0
 40
0
 40
0
 40
0
 40
1
 40
1
 40
1
 40
1
 10
-38.024608
 20
305.338992
 30
0.0
 10
-39.947791
 20
305.519214
 30
0.0
 10
-40.757922
 20
305.360891
 30
0.0
 10
-42.627710
 20
304.439228
 30
0.0
  0
SPLINE
  5
135
100
AcDbEntity
  8
Layer_1
 62
7
100
AcDbSpline
 70
8
 71
3
 72
8
 73
4
 74
0
 40
0
 40
0
 40
0
 40
0
 40
1
 40
1
 40
1
 40
1
 10
-42.627710
 20
304.439228
 30
0.0
 10
-44.294047
 20
303.617886
 30
0.0
 10
-45.307392
 20
302.546911
 30
0.0
 10
-45.719404
 20
301.171711
 30
0.0
  0
SPLINE
  5
136
100
AcDbEntity
  8
Layer_1
 62
7
100
AcDbSpline
 70
8
 71
3
 72
8
 73
4
 74
0
 40
0
 40
0
 40
0
 40
0
 40
1
 40
1
 40
1
 40
1
 10
-45.719404
 20
301.171711
 30
0.0
 10
-46.088482
 20
299.939813
 30
0.0
 10
-45.491638
 20
298.210827
 30
0.0
 10
-44.275345
 20
296.988420
 30
0.0
  0
SPLINE
  5
137
100
AcDbEntity
  8
Layer_1
 62
7
100
AcDbSpline
 70
8
 71
3
 72
8
 73
4
 74
0
 40
0
 40
0
 40
0
 40
0
 40
1
 40
1
 40
1
 40
1
 10
-44.275345
 20
296.988420
 30
0.0
 10
-43.159368
 20
295.866843
 30
0.0
 10
-42.538888
 20
295.754672
 30
0.0
 10
-41.406186
 20
296.469742
 30
0.0
  0
SPLINE
  5
138
100
AcDbEntity
  8
Layer_1
 62
7
100
AcDbSpline
 70
8
 71
3
 72
8
 73
4
 74
0
 40
0
 40
0
 40
0
 40
0
 40
1
 40
1
 40
1
 40
1
 10
-41.406186
 20
296.469742
 30
0.0
 10
-41.012015
 20
296.718586
 30
0.0
 10
-40.507991
 20
297.019050
 30
0.0
 10
-40.286132
 20
297.137462
 30
0.0
  0
SPLINE
  5
139
100
AcDbEntity
  8
Layer_1
 62
7
100
AcDbSpline
 70
8
 71
3
 72
8
 73
4
 74
0
 40
0
 40
0
 40
0
 40
0
 40
1
 40
1
 40
1
 40
1
 10
-40.286132
 20
297.137462
 30
0.0
 10
-39.925496
 20
297.329925
 30
0.0
 10
-39.488047
 20
297.889773
 30
0.0
 10
-38.834474
 20
298.995309
 30
0.0
  0
SPLINE
  5
13a
100
AcDbEntity
  8
Layer_1
 62
7
100
AcDbSpline
 70
8
 71
3
 72
8
 73
4
 74
0
 40
0
 40
0
 40
0
 40
0
 40
1
 40
1
 40
1
 40
1
 10
-38.834474
 20
298.995309
 30
0.0
 10
-38.671819
 20
299.270443
 30
0.0
 10
-38.390053
 20
299.353554
 30
0.0
 10
-37.708274
 20
299.327524
 30
0.0
  0
SPLINE
  5
13b
100
AcDbEntity
  8
Layer_1
 62
7
100
AcDbSpline
 70
8
 71
3
 72
8
 73
4
 74
0
 40
0
 40
0
 40
0
 40
0
 40
1
 40
1
 40
1
 40
1
 10
-37.708274
 20
299.327524
 30
0.0
 10
-36.142899
 20
299.267723
 30
0.0
 10
-35.199703
 20
298.267438
 30
0.0
 10
-34.783161
 20
296.225348
 30
0.0
  0
SPLINE
  5
13c
100
AcDbEntity
  8
Layer_1
 62
7
100
AcDbSpline
 70
8
 71
3
 72
8
 73
4
 74
0
 40
0
 40
0
 40
0
 40
0
 40
1
 40
1
 40
1
 40
1
 10
-34.783161
 20
296.225348
 30
0.0
 10
-34.527305
 20
294.971010
 30
0.0
 10
-34.548664
 20
294.565614
 30
0.0
 10
-34.976404
 20
292.557465
 30
0.0
  0
SPLINE
  5
13d
100
AcDbEntity
  8
Layer_1
 62
7
100
AcDbSpline
 70
8
 71
3
 72
8
 73
4
 74
0
 40
0
 40
0
 40
0
 40
0
 40
1
 40
1
 40
1
 40
1
 10
-34.976404
 20
292.557465
 30
0.0
 10
-35.033714
 20
292.288411
 30
0.0
 10
-35.647130
 20
291.510460
 30
0.0
 10
-36.339552
 20
290.828690
 30
0.0
  0
SPLINE
  5
13e
100
AcDbEntity
  8
Layer_1
 62
7
100
AcDbSpline
 70
8
 71
3
 72
8
 73
4
 74
0
 40
0
 40
0
 40
0
 40
0
 40
1
 40
1
 40
1
 40
1
 10
-36.339552
 20
290.828690
 30
0.0
 10
-37.540523
 20
289.646202
 30
0.0
 10
-37.682790
 20
289.568891
 30
0.0
 10
-39.428711
 20
289.149825
 30
0.0
  0
SPLINE
  5
13f
100
AcDbEntity
  8
Layer_1
 62
7
100
AcDbSpline
 70
8
 71
3
 72
8
 73
4
 74
0
 40
0
 40
0
 40
0
 40
0
 40
1
 40
1
 40
1
 40
1
 10
-39.428711
 20
289.149825
 30
0.0
 10
-41.469542
 20
288.659968
 30
0.0
 10
-42.533408
 20
288.737849
 30
0.0
 10
-44.330299
 20
289.508660
 30
0.0
  0
SPLINE
  5
140
100
AcDbEntity
  8
Layer_1
 62
7
100
AcDbSpline
 70
8
 71
3
 72
8
 73
4
 74
0
 40
0
 40
0
 40
0
 40
0
 40
1
 40
1
 40
1
 40
1
 10
-44.330299
 20
289.508660
 30
0.0
 10
-44.868671
 20
289.739604
 30
0.0
 10
-45.370342
 20
289.867376
 30
0.0
 10
-45.445123
 20
289.792595
 30
0.0
  0
SPLINE
  5
141
100
AcDbEntity
  8
Layer_1
 62
7
100
AcDbSpline
 70
8
 71
3
 72
8
 73
4
 74
0
 40
0
 40
0
 40
0
 40
0
 40
1
 40
1
 40
1
 40
1
 10
-45.445123
 20
289.792595
 30
0.0
 10
-45.721509
 20
289.516201
 30
0.0
 10
-44.730648
 20
288.834451
 30
0.0
 10
-43.041272
 20
288.138660
 30
0.0
  0
SPLINE
  5
142
100
AcDbEntity
  8
Layer_1
 62
7
100
AcDbSpline
 70
8
 71
3
 72
8
 73
4
 74
0
 40
0
 40
0
 40
0
 40
0
 40
1
 40
1
 40
1
 40
1
 10
-43.041272
 20
288.138660
 30
0.0
 10
-40.313230
 20
287.015074
 30
0.0
 10
-38.673348
 20
287.183627
 30
0.0
 10
-35.399841
 20
288.924092
 30
0.0
  0
SPLINE
  5
143
100
AcDbEntity
  8
Layer_1
 62
7
100
AcDbSpline
 70
8
 71
3
 72
8
 73
4
 74
0
 40
0
 40
0
 40
0
 40
0
 40
1
 40
1
 40
1
 40
1
 10
-35.399841
 20
288.924092
 30
0.0
 10
-34.630303
 20
289.333238
 30
0.0
 10
-33.849979
 20
289.668003
 30
0.0
 10
-33.665790
 20
289.668003
 30
0.0
  0
SPLINE
  5
144
100
AcDbEntity
  8
Layer_1
 62
7
100
AcDbSpline
 70
8
 71
3
 72
8
 73
4
 74
0
 40
0
 40
0
 40
0
 40
0
 40
1
 40
1
 40
1
 40
1
 10
-33.665790
 20
289.668003
 30
0.0
 10
-33.481599
 20
289.668003
 30
0.0
 10
-32.867282
 20
290.126119
 30
0.0
 10
-32.300641
 20
290.686038
 30
0.0
  0
LINE
  5
145
100
AcDbEntity
  8
Layer_1
 62
7
100
AcDbLine
 10
-32.300641
 20
290.686038
 30
0.0
 11
-31.270384
 21
291.704072
 31
0.0
  0
LINE
  5
146
100
AcDbEntity
  8
Layer_1
 62
7
100
AcDbLine
 10
-31.270384
 20
291.704072
 30
0.0
 11
-31.334124
 21
288.484785
 31
0.0
  0
SPLINE
  5
147
100
AcDbEntity
  8
Layer_1
 62
7
100
AcDbSpline
 70
8
 71
3
 72
8
 73
4
 74
0
 40
0
 40
0
 40
0
 40
0
 40
1
 40
1
 40
1
 40
1
 10
-31.334124
 20
288.484785
 30
0.0
 10
-31.376404
 20
286.348874
 30
0.0
 10
-31.479772
 20
285.183787
 30
0.0
 10
-31.641270
 20
285.022675
 30
0.0
  0
SPLINE
  5
148
100
AcDbEntity
  8
Layer_1
 62
7
100
AcDbSpline
 70
8
 71
3
 72
8
 73
4
 74
0
 40
0
 40
0
 40
0
 40
0
 40
1
 40
1
 40
1
 40
1
 10
-31.641270
 20
285.022675
 30
0.0
 10
-31.775145
 20
284.889123
 30
0.0
 10
-32.806117
 20
284.459587
 30
0.0
 10
-33.932317
 20
284.068161
 30
0.0
  0
SPLINE
  5
149
100
AcDbEntity
  8
Layer_1
 62
7
100
AcDbSpline
 70
8
 71
3
 72
8
 73
4
 74
0
 40
0
 40
0
 40
0
 40
0
 40
1
 40
1
 40
1
 40
1
 10
-33.932317
 20
284.068161
 30
0.0
 10
-35.058517
 20
283.676725
 30
0.0
 10
-36.844821
 20
283.025806
 30
0.0
 10
-37.901881
 20
282.621660
 30
0.0
  0
SPLINE
  5
14a
100
AcDbEntity
  8
Layer_1
 62
7
100
AcDbSpline
 70
8
 71
3
 72
8
 73
4
 74
0
 40
0
 40
0
 40
0
 40
0
 40
1
 40
1
 40
1
 40
1
 10
-37.901881
 20
282.621660
 30
0.0
 10
-38.958943
 20
282.217514
 30
0.0
 10
-39.972522
 20
281.897429
 30
0.0
 10
-40.154282
 20
281.910380
 30
0.0
  0
SPLINE
  5
14b
100
AcDbEntity
  8
Layer_1
 62
7
100
AcDbSpline
 70
8
 71
3
 72
8
 73
4
 74
0
 40
0
 40
0
 40
0
 40
0
 40
1
 40
1
 40
1
 40
1
 10
-40.154282
 20
281.910380
 30
0.0
 10
-40.336042
 20
281.923280
 30
0.0
 10
-42.284081
 20
282.591369
 30
0.0
 10
-44.483255
 20
283.394941
 30
0.0
  0
LINE
  5
14c
100
AcDbEntity
  8
Layer_1
 62
7
100
AcDbLine
 10
-44.483255
 20
283.394941
 30
0.0
 11
-44.483249
 21
283.394931
 31
0.0
  0
SPLINE
  5
14d
100
AcDbEntity
  8
Layer_1
 62
7
100
AcDbSpline
 70
8
 71
3
 72
8
 73
4
 74
0
 40
0
 40
0
 40
0
 40
0
 40
1
 40
1
 40
1
 40
1
 10
38.912437
 20
287.883607
 30
0.0
 10
37.400551
 20
289.120985
 30
0.0
 10
37.468310
 20
289.461520
 30
0.0
 10
39.146316
 20
289.058964
 30
0.0
  0
SPLINE
  5
14e
100
AcDbEntity
  8
Layer_1
 62
7
100
AcDbSpline
 70
8
 71
3
 72
8
 73
4
 74
0
 40
0
 40
0
 40
0
 40
0
 40
1
 40
1
 40
1
 40
1
 10
39.146316
 20
289.058964
 30
0.0
 10
41.439181
 20
288.508916
 30
0.0
 10
42.841267
 20
289.209286
 30
0.0
 10
43.801415
 20
291.384298
 30
0.0
  0
SPLINE
  5
14f
100
AcDbEntity
  8
Layer_1
 62
7
100
AcDbSpline
 70
8
 71
3
 72
8
 73
4
 74
0
 40
0
 40
0
 40
0
 40
0
 40
1
 40
1
 40
1
 40
1
 10
43.801415
 20
291.384298
 30
0.0
 10
44.394224
 20
292.727187
 30
0.0
 10
44.433313
 20
295.090462
 30
0.0
 10
43.886915
 20
296.556393
 30
0.0
  0
SPLINE
  5
150
100
AcDbEntity
  8
Layer_1
 62
7
100
AcDbSpline
 70
8
 71
3
 72
8
 73
4
 74
0
 40
0
 40
0
 40
0
 40
0
 40
1
 40
1
 40
1
 40
1
 10
43.886915
 20
296.556393
 30
0.0
 10
43.333176
 20
298.042155
 30
0.0
 10
41.770560
 20
300.595702
 30
0.0
 10
40.636463
 20
301.868161
 30
0.0
  0
SPLINE
  5
151
100
AcDbEntity
  8
Layer_1
 62
7
100
AcDbSpline
 70
8
 71
3
 72
8
 73
4
 74
0
 40
0
 40
0
 40
0
 40
0
 40
1
 40
1
 40
1
 40
1
 10
40.636463
 20
301.868161
 30
0.0
 10
39.733445
 20
302.881346
 30
0.0
 10
38.408558
 20
303.796919
 30
0.0
 10
37.845470
 20
303.796919
 30
0.0
  0
SPLINE
  5
152
100
AcDbEntity
  8
Layer_1
 62
7
100
AcDbSpline
 70
8
 71
3
 72
8
 73
4
 74
0
 40
0
 40
0
 40
0
 40
0
 40
1
 40
1
 40
1
 40
1
 10
37.845470
 20
303.796919
 30
0.0
 10
37.702900
 20
303.796919
 30
0.0
 10
37.632550
 20
301.801150
 30
0.0
 10
37.632550
 20
297.756291
 30
0.0
  0
SPLINE
  5
153
100
AcDbEntity
  8
Layer_1
 62
7
100
AcDbSpline
 70
8
 71
3
 72
8
 73
4
 74
0
 40
0
 40
0
 40
0
 40
0
 40
1
 40
1
 40
1
 40
1
 10
37.632550
 20
297.756291
 30
0.0
 10
37.632550
 20
292.398233
 30
0.0
 10
37.668950
 20
291.715663
 30
0.0
 10
37.954709
 20
291.715663
 30
0.0
  0
SPLINE
  5
154
100
AcDbEntity
  8
Layer_1
 62
7
100
AcDbSpline
 70
8
 71
3
 72
8
 73
4
 74
0
 40
0
 40
0
 40
0
 40
0
 40
1
 40
1
 40
1
 40
1
 10
37.954709
 20
291.715663
 30
0.0
 10
38.678337
 20
291.715663
 30
0.0
 10
38.059179
 20
290.942081
 30
0.0
 10
36.506343
 20
289.906076
 30
0.0
  0
SPLINE
  5
155
100
AcDbEntity
  8
Layer_1
 62
7
100
AcDbSpline
 70
8
 71
3
 72
8
 73
4
 74
0
 40
0
 40
0
 40
0
 40
0
 40
1
 40
1
 40
1
 40
1
 10
36.506343
 20
289.906076
 30
0.0
 10
33.756450
 20
288.071430
 30
0.0
 10
33.368790
 20
287.940997
 30
0.0
 10
30.670577
 20
287.942568
 30
0.0
  0
SPLINE
  5
156
100
AcDbEntity
  8
Layer_1
 62
7
100
AcDbSpline
 70
8
 71
3
 72
8
 73
4
 74
0
 40
0
 40
0
 40
0
 40
0
 40
1
 40
1
 40
1
 40
1
 10
30.670577
 20
287.942568
 30
0.0
 10
27.858184
 20
287.944568
 30
0.0
 10
26.965446
 20
288.263092
 30
0.0
 10
25.261420
 20
289.874716
 30
0.0
  0
SPLINE
  5
157
100
AcDbEntity
  8
Layer_1
 62
7
100
AcDbSpline
 70
8
 71
3
 72
8
 73
4
 74
0
 40
0
 40
0
 40
0
 40
0
 40
1
 40
1
 40
1
 40
1
 10
25.261420
 20
289.874716
 30
0.0
 10
23.656534
 20
291.392568
 30
0.0
 10
22.994116
 20
292.946601
 30
0.0
 10
22.992886
 20
295.196703
 30
0.0
  0
SPLINE
  5
158
100
AcDbEntity
  8
Layer_1
 62
7
100
AcDbSpline
 70
8
 71
3
 72
8
 73
4
 74
0
 40
0
 40
0
 40
0
 40
0
 40
1
 40
1
 40
1
 40
1
 10
22.992886
 20
295.196703
 30
0.0
 10
22.990886
 20
297.939643
 30
0.0
 10
23.977423
 20
299.619008
 30
0.0
 10
26.290148
 20
300.812435
 30
0.0
  0
SPLINE
  5
159
100
AcDbEntity
  8
Layer_1
 62
7
100
AcDbSpline
 70
8
 71
3
 72
8
 73
4
 74
0
 40
0
 40
0
 40
0
 40
0
 40
1
 40
1
 40
1
 40
1
 10
26.290148
 20
300.812435
 30
0.0
 10
28.410493
 20
301.906581
 30
0.0
 10
30.593617
 20
301.669168
 30
0.0
 10
31.879524
 20
300.204587
 30
0.0
  0
SPLINE
  5
15a
100
AcDbEntity
  8
Layer_1
 62
7
100
AcDbSpline
 70
8
 71
3
 72
8
 73
4
 74
0
 40
0
 40
0
 40
0
 40
0
 40
1
 40
1
 40
1
 40
1
 10
31.879524
 20
300.204587
 30
0.0
 10
32.494553
 20
299.504086
 30
0.0
 10
32.880152
 20
298.286359
 30
0.0
 10
32.620152
 20
297.865662
 30
0.0
  0
SPLINE
  5
15b
100
AcDbEntity
  8
Layer_1
 62
7
100
AcDbSpline
 70
8
 71
3
 72
8
 73
4
 74
0
 40
0
 40
0
 40
0
 40
0
 40
1
 40
1
 40
1
 40
1
 10
32.620152
 20
297.865662
 30
0.0
 10
32.543852
 20
297.742261
 30
0.0
 10
31.460265
 20
297.129122
 30
0.0
 10
30.212098
 20
296.503133
 30
0.0
  0
SPLINE
  5
15c
100
AcDbEntity
  8
Layer_1
 62
7
100
AcDbSpline
 70
8
 71
3
 72
8
 73
4
 74
0
 40
0
 40
0
 40
0
 40
0
 40
1
 40
1
 40
1
 40
1
 10
30.212098
 20
296.503133
 30
0.0
 10
28.963921
 20
295.877143
 30
0.0
 10
27.586995
 20
295.140423
 30
0.0
 10
27.152246
 20
294.865969
 30
0.0
  0
SPLINE
  5
15d
100
AcDbEntity
  8
Layer_1
 62
7
100
AcDbSpline
 70
8
 71
3
 72
8
 73
4
 74
0
 40
0
 40
0
 40
0
 40
0
 40
1
 40
1
 40
1
 40
1
 10
27.152246
 20
294.865969
 30
0.0
 10
26.437767
 20
294.414932
 30
0.0
 10
26.348948
 20
294.400412
 30
0.0
 10
26.228248
 20
294.714966
 30
0.0
  0
SPLINE
  5
15e
100
AcDbEntity
  8
Layer_1
 62
7
100
AcDbSpline
 70
8
 71
3
 72
8
 73
4
 74
0
 40
0
 40
0
 40
0
 40
0
 40
1
 40
1
 40
1
 40
1
 10
26.228248
 20
294.714966
 30
0.0
 10
26.084688
 20
295.089072
 30
0.0
 10
26.806996
 20
295.808972
 30
0.0
 10
28.315803
 20
296.795557
 30
0.0
  0
SPLINE
  5
15f
100
AcDbEntity
  8
Layer_1
 62
7
100
AcDbSpline
 70
8
 71
3
 72
8
 73
4
 74
0
 40
0
 40
0
 40
0
 40
0
 40
1
 40
1
 40
1
 40
1
 10
28.315803
 20
296.795557
 30
0.0
 10
28.766282
 20
297.090121
 30
0.0
 10
29.479230
 20
297.594868
 30
0.0
 10
29.900139
 20
297.917213
 30
0.0
  0
SPLINE
  5
160
100
AcDbEntity
  8
Layer_1
 62
7
100
AcDbSpline
 70
8
 71
3
 72
8
 73
4
 74
0
 40
0
 40
0
 40
0
 40
0
 40
1
 40
1
 40
1
 40
1
 10
29.900139
 20
297.917213
 30
0.0
 10
30.655927
 20
298.496032
 30
0.0
 10
30.661517
 20
298.510842
 30
0.0
 10
30.351048
 20
299.111241
 30
0.0
  0
SPLINE
  5
161
100
AcDbEntity
  8
Layer_1
 62
7
100
AcDbSpline
 70
8
 71
3
 72
8
 73
4
 74
0
 40
0
 40
0
 40
0
 40
0
 40
1
 40
1
 40
1
 40
1
 10
30.351048
 20
299.111241
 30
0.0
 10
29.669319
 20
300.429570
 30
0.0
 10
27.899984
 20
300.230397
 30
0.0
 10
26.496967
 20
298.677384
 30
0.0
  0
SPLINE
  5
162
100
AcDbEntity
  8
Layer_1
 62
7
100
AcDbSpline
 70
8
 71
3
 72
8
 73
4
 74
0
 40
0
 40
0
 40
0
 40
0
 40
1
 40
1
 40
1
 40
1
 10
26.496967
 20
298.677384
 30
0.0
 10
24.849191
 20
296.853468
 30
0.0
 10
25.085241
 20
293.846714
 30
0.0
 10
27.081676
 20
291.229205
 30
0.0
  0
SPLINE
  5
163
100
AcDbEntity
  8
Layer_1
 62
7
100
AcDbSpline
 70
8
 71
3
 72
8
 73
4
 74
0
 40
0
 40
0
 40
0
 40
0
 40
1
 40
1
 40
1
 40
1
 10
27.081676
 20
291.229205
 30
0.0
 10
28.255483
 20
289.690243
 30
0.0
 10
31.103946
 20
288.867911
 30
0.0
 10
33.214261
 20
289.458780
 30
0.0
  0
SPLINE
  5
164
100
AcDbEntity
  8
Layer_1
 62
7
100
AcDbSpline
 70
8
 71
3
 72
8
 73
4
 74
0
 40
0
 40
0
 40
0
 40
0
 40
1
 40
1
 40
1
 40
1
 10
33.214261
 20
289.458780
 30
0.0
 10
33.935889
 20
289.660823
 30
0.0
 10
34.172028
 20
289.841615
 30
0.0
 10
34.338648
 20
290.319612
 30
0.0
  0
SPLINE
  5
165
100
AcDbEntity
  8
Layer_1
 62
7
100
AcDbSpline
 70
8
 71
3
 72
8
 73
4
 74
0
 40
0
 40
0
 40
0
 40
0
 40
1
 40
1
 40
1
 40
1
 10
34.338648
 20
290.319612
 30
0.0
 10
34.807187
 20
291.663672
 30
0.0
 10
34.984946
 20
294.483563
 30
0.0
 10
34.917147
 20
299.496816
 30
0.0
  0
SPLINE
  5
166
100
AcDbEntity
  8
Layer_1
 62
7
100
AcDbSpline
 70
8
 71
3
 72
8
 73
4
 74
0
 40
0
 40
0
 40
0
 40
0
 40
1
 40
1
 40
1
 40
1
 10
34.917147
 20
299.496816
 30
0.0
 10
34.845847
 20
304.773693
 30
0.0
 10
34.752317
 20
305.444053
 30
0.0
 10
34.050239
 20
305.713467
 30
0.0
  0
SPLINE
  5
167
100
AcDbEntity
  8
Layer_1
 62
7
100
AcDbSpline
 70
8
 71
3
 72
8
 73
4
 74
0
 40
0
 40
0
 40
0
 40
0
 40
1
 40
1
 40
1
 40
1
 10
34.050239
 20
305.713467
 30
0.0
 10
33.783709
 20
305.815748
 30
0.0
 10
33.774579
 20
305.904360
 30
0.0
 10
33.993339
 20
306.265685
 30
0.0
  0
SPLINE
  5
168
100
AcDbEntity
  8
Layer_1
 62
7
100
AcDbSpline
 70
8
 71
3
 72
8
 73
4
 74
0
 40
0
 40
0
 40
0
 40
0
 40
1
 40
1
 40
1
 40
1
 10
33.993339
 20
306.265685
 30
0.0
 10
34.224438
 20
306.647351
 30
0.0
 10
34.184408
 20
306.757982
 30
0.0
 10
33.639640
 20
307.242979
 30
0.0
  0
SPLINE
  5
169
100
AcDbEntity
  8
Layer_1
 62
7
100
AcDbSpline
 70
8
 71
3
 72
8
 73
4
 74
0
 40
0
 40
0
 40
0
 40
0
 40
1
 40
1
 40
1
 40
1
 10
33.639640
 20
307.242979
 30
0.0
 10
33.301791
 20
307.543774
 30
0.0
 10
32.851322
 20
307.995560
 30
0.0
 10
32.638602
 20
308.246934
 30
0.0
  0
LINE
  5
16a
100
AcDbEntity
  8
Layer_1
 62
7
100
AcDbLine
 10
32.638602
 20
308.246934
 30
0.0
 11
32.251853
 21
308.703991
 31
0.0
  0
LINE
  5
16b
100
AcDbEntity
  8
Layer_1
 62
7
100
AcDbLine
 10
32.251853
 20
308.703991
 30
0.0
 11
33.147851
 21
309.084526
 31
0.0
  0
SPLINE
  5
16c
100
AcDbEntity
  8
Layer_1
 62
7
100
AcDbSpline
 70
8
 71
3
 72
8
 73
4
 74
0
 40
0
 40
0
 40
0
 40
0
 40
1
 40
1
 40
1
 40
1
 10
33.147851
 20
309.084526
 30
0.0
 10
34.610257
 20
309.705615
 30
0.0
 10
35.201876
 20
309.448241
 30
0.0
 10
39.155896
 20
306.470828
 30
0.0
  0
SPLINE
  5
16d
100
AcDbEntity
  8
Layer_1
 62
7
100
AcDbSpline
 70
8
 71
3
 72
8
 73
4
 74
0
 40
0
 40
0
 40
0
 40
0
 40
1
 40
1
 40
1
 40
1
 10
39.155896
 20
306.470828
 30
0.0
 10
41.895490
 20
304.407888
 30
0.0
 10
42.859927
 20
303.552115
 30
0.0
 10
43.625675
 20
302.504690
 30
0.0
  0
SPLINE
  5
16e
100
AcDbEntity
  8
Layer_1
 62
7
100
AcDbSpline
 70
8
 71
3
 72
8
 73
4
 74
0
 40
0
 40
0
 40
0
 40
0
 40
1
 40
1
 40
1
 40
1
 10
43.625675
 20
302.504690
 30
0.0
 10
44.872792
 20
300.798825
 30
0.0
 10
46.131929
 20
298.302719
 30
0.0
 10
46.533308
 20
296.740626
 30
0.0
  0
SPLINE
  5
16f
100
AcDbEntity
  8
Layer_1
 62
7
100
AcDbSpline
 70
8
 71
3
 72
8
 73
4
 74
0
 40
0
 40
0
 40
0
 40
0
 40
1
 40
1
 40
1
 40
1
 10
46.533308
 20
296.740626
 30
0.0
 10
46.944107
 20
295.141903
 30
0.0
 10
46.947257
 20
293.282466
 30
0.0
 10
46.539308
 20
292.944261
 30
0.0
  0
SPLINE
  5
170
100
AcDbEntity
  8
Layer_1
 62
7
100
AcDbSpline
 70
8
 71
3
 72
8
 73
4
 74
0
 40
0
 40
0
 40
0
 40
0
 40
1
 40
1
 40
1
 40
1
 10
46.539308
 20
292.944261
 30
0.0
 10
46.251819
 20
292.705677
 30
0.0
 10
46.100309
 20
291.920426
 30
0.0
 10
46.341749
 20
291.920426
 30
0.0
  0
SPLINE
  5
171
100
AcDbEntity
  8
Layer_1
 62
7
100
AcDbSpline
 70
8
 71
3
 72
8
 73
4
 74
0
 40
0
 40
0
 40
0
 40
0
 40
1
 40
1
 40
1
 40
1
 10
46.341749
 20
291.920426
 30
0.0
 10
46.402049
 20
291.920426
 30
0.0
 10
46.674398
 20
292.066588
 30
0.0
 10
46.947037
 20
292.245230
 30
0.0
  0
SPLINE
  5
172
100
AcDbEntity
  8
Layer_1
 62
7
100
AcDbSpline
 70
8
 71
3
 72
8
 73
4
 74
0
 40
0
 40
0
 40
0
 40
0
 40
1
 40
1
 40
1
 40
1
 10
46.947037
 20
292.245230
 30
0.0
 10
47.595206
 20
292.669937
 30
0.0
 10
48.024525
 20
292.430283
 30
0.0
 10
47.551636
 20
291.907725
 30
0.0
  0
SPLINE
  5
173
100
AcDbEntity
  8
Layer_1
 62
7
100
AcDbSpline
 70
8
 71
3
 72
8
 73
4
 74
0
 40
0
 40
0
 40
0
 40
0
 40
1
 40
1
 40
1
 40
1
 10
47.551636
 20
291.907725
 30
0.0
 10
47.361686
 20
291.697842
 30
0.0
 10
47.263216
 20
291.377838
 30
0.0
 10
47.332786
 20
291.196535
 30
0.0
  0
SPLINE
  5
174
100
AcDbEntity
  8
Layer_1
 62
7
100
AcDbSpline
 70
8
 71
3
 72
8
 73
4
 74
0
 40
0
 40
0
 40
0
 40
0
 40
1
 40
1
 40
1
 40
1
 10
47.332786
 20
291.196535
 30
0.0
 10
47.402386
 20
291.015252
 30
0.0
 10
47.361086
 20
290.683398
 30
0.0
 10
47.240986
 20
290.459084
 30
0.0
  0
SPLINE
  5
175
100
AcDbEntity
  8
Layer_1
 62
7
100
AcDbSpline
 70
8
 71
3
 72
8
 73
4
 74
0
 40
0
 40
0
 40
0
 40
0
 40
1
 40
1
 40
1
 40
1
 10
47.240986
 20
290.459084
 30
0.0
 10
47.067336
 20
290.134610
 30
0.0
 10
46.896636
 20
290.078929
 30
0.0
 10
46.405908
 20
290.186710
 30
0.0
  0
SPLINE
  5
176
100
AcDbEntity
  8
Layer_1
 62
7
100
AcDbSpline
 70
8
 71
3
 72
8
 73
4
 74
0
 40
0
 40
0
 40
0
 40
0
 40
1
 40
1
 40
1
 40
1
 10
46.405908
 20
290.186710
 30
0.0
 10
45.926399
 20
290.292032
 30
0.0
 10
45.678879
 20
290.218611
 30
0.0
 10
45.293950
 20
289.857015
 30
0.0
  0
SPLINE
  5
177
100
AcDbEntity
  8
Layer_1
 62
7
100
AcDbSpline
 70
8
 71
3
 72
8
 73
4
 74
0
 40
0
 40
0
 40
0
 40
0
 40
1
 40
1
 40
1
 40
1
 10
45.293950
 20
289.857015
 30
0.0
 10
44.593492
 20
289.198956
 30
0.0
 10
44.674072
 20
288.986833
 30
0.0
 10
45.566660
 20
289.139135
 30
0.0
  0
LINE
  5
178
100
AcDbEntity
  8
Layer_1
 62
7
100
AcDbLine
 10
45.566660
 20
289.139135
 30
0.0
 11
46.334528
 21
289.270147
 31
0.0
  0
LINE
  5
179
100
AcDbEntity
  8
Layer_1
 62
7
100
AcDbLine
 10
46.334528
 20
289.270147
 30
0.0
 11
45.670749
 21
288.654418
 31
0.0
  0
SPLINE
  5
17a
100
AcDbEntity
  8
Layer_1
 62
7
100
AcDbSpline
 70
8
 71
3
 72
8
 73
4
 74
0
 40
0
 40
0
 40
0
 40
0
 40
1
 40
1
 40
1
 40
1
 10
45.670749
 20
288.654418
 30
0.0
 10
45.103871
 20
288.128560
 30
0.0
 10
44.930071
 20
288.067929
 30
0.0
 10
44.480032
 20
288.239032
 30
0.0
  0
SPLINE
  5
17b
100
AcDbEntity
  8
Layer_1
 62
7
100
AcDbSpline
 70
8
 71
3
 72
8
 73
4
 74
0
 40
0
 40
0
 40
0
 40
0
 40
1
 40
1
 40
1
 40
1
 10
44.480032
 20
288.239032
 30
0.0
 10
43.565315
 20
288.586817
 30
0.0
 10
42.986486
 20
288.462455
 30
0.0
 10
41.600329
 20
287.620323
 30
0.0
  0
SPLINE
  5
17c
100
AcDbEntity
  8
Layer_1
 62
7
100
AcDbSpline
 70
8
 71
3
 72
8
 73
4
 74
0
 40
0
 40
0
 40
0
 40
0
 40
1
 40
1
 40
1
 40
1
 10
41.600329
 20
287.620323
 30
0.0
 10
40.858821
 20
287.169836
 30
0.0
 10
40.238523
 20
286.809131
 30
0.0
 10
40.221873
 20
286.818751
 30
0.0
  0
SPLINE
  5
17d
100
AcDbEntity
  8
Layer_1
 62
7
100
AcDbSpline
 70
8
 71
3
 72
8
 73
4
 74
0
 40
0
 40
0
 40
0
 40
0
 40
1
 40
1
 40
1
 40
1
 10
40.221873
 20
286.818751
 30
0.0
 10
40.205173
 20
286.828751
 30
0.0
 10
39.615744
 20
287.307568
 30
0.0
 10
38.911906
 20
287.883607
 30
0.0
  0
LINE
  5
17e
100
AcDbEntity
  8
Layer_1
 62
7
100
AcDbLine
 10
38.911906
 20
287.883607
 30
0.0
 11
38.912437
 21
287.883607
 31
0.0
  0
SPLINE
  5
17f
100
AcDbEntity
  8
Layer_1
 62
7
100
AcDbSpline
 70
8
 71
3
 72
8
 73
4
 74
0
 40
0
 40
0
 40
0
 40
0
 40
1
 40
1
 40
1
 40
1
 10
-28.276658
 20
287.805506
 30
0.0
 10
-28.514972
 20
287.956448
 30
0.0
 10
-28.503276
 20
288.268182
 30
0.0
 10
-28.201868
 20
289.798845
 30
0.0
  0
SPLINE
  5
180
100
AcDbEntity
  8
Layer_1
 62
7
100
AcDbSpline
 70
8
 71
3
 72
8
 73
4
 74
0
 40
0
 40
0
 40
0
 40
0
 40
1
 40
1
 40
1
 40
1
 10
-28.201868
 20
289.798845
 30
0.0
 10
-28.005363
 20
290.796779
 30
0.0
 10
-27.769550
 20
291.756333
 30
0.0
 10
-27.677839
 20
291.931206
 30
0.0
  0
SPLINE
  5
181
100
AcDbEntity
  8
Layer_1
 62
7
100
AcDbSpline
 70
8
 71
3
 72
8
 73
4
 74
0
 40
0
 40
0
 40
0
 40
0
 40
1
 40
1
 40
1
 40
1
 10
-27.677839
 20
291.931206
 30
0.0
 10
-27.586129
 20
292.106068
 30
0.0
 10
-27.357128
 20
293.027522
 30
0.0
 10
-27.168950
 20
293.978876
 30
0.0
  0
SPLINE
  5
182
100
AcDbEntity
  8
Layer_1
 62
7
100
AcDbSpline
 70
8
 71
3
 72
8
 73
4
 74
0
 40
0
 40
0
 40
0
 40
0
 40
1
 40
1
 40
1
 40
1
 10
-27.168950
 20
293.978876
 30
0.0
 10
-26.753127
 20
296.081106
 30
0.0
 10
-24.066189
 20
303.113879
 30
0.0
 10
-22.870238
 20
305.230280
 30
0.0
  0
SPLINE
  5
183
100
AcDbEntity
  8
Layer_1
 62
7
100
AcDbSpline
 70
8
 71
3
 72
8
 73
4
 74
0
 40
0
 40
0
 40
0
 40
0
 40
1
 40
1
 40
1
 40
1
 10
-22.870238
 20
305.230280
 30
0.0
 10
-22.392931
 20
306.074952
 30
0.0
 10
-21.676941
 20
307.364981
 30
0.0
 10
-21.279150
 20
308.097022
 30
0.0
  0
SPLINE
  5
184
100
AcDbEntity
  8
Layer_1
 62
7
100
AcDbSpline
 70
8
 71
3
 72
8
 73
4
 74
0
 40
0
 40
0
 40
0
 40
0
 40
1
 40
1
 40
1
 40
1
 10
-21.279150
 20
308.097022
 30
0.0
 10
-20.881359
 20
308.829062
 30
0.0
 10
-20.323058
 20
309.646194
 30
0.0
 10
-20.038482
 20
309.912878
 30
0.0
  0
SPLINE
  5
185
100
AcDbEntity
  8
Layer_1
 62
7
100
AcDbSpline
 70
8
 71
3
 72
8
 73
4
 74
0
 40
0
 40
0
 40
0
 40
0
 40
1
 40
1
 40
1
 40
1
 10
-20.038482
 20
309.912878
 30
0.0
 10
-19.397913
 20
310.513147
 30
0.0
 10
-17.730014
 20
310.872562
 30
0.0
 10
-17.287861
 20
310.505597
 30
0.0
  0
SPLINE
  5
186
100
AcDbEntity
  8
Layer_1
 62
7
100
AcDbSpline
 70
8
 71
3
 72
8
 73
4
 74
0
 40
0
 40
0
 40
0
 40
0
 40
1
 40
1
 40
1
 40
1
 10
-17.287861
 20
310.505597
 30
0.0
 10
-16.866021
 20
310.155502
 30
0.0
 10
-16.135418
 20
308.954614
 30
0.0
 10
-15.822509
 20
308.097022
 30
0.0
  0
SPLINE
  5
187
100
AcDbEntity
  8
Layer_1
 62
7
100
AcDbSpline
 70
8
 71
3
 72
8
 73
4
 74
0
 40
0
 40
0
 40
0
 40
0
 40
1
 40
1
 40
1
 40
1
 10
-15.822509
 20
308.097022
 30
0.0
 10
-14.315459
 20
303.966621
 30
0.0
 10
-14.236679
 20
303.180790
 30
0.0
 10
-15.217645
 20
302.063514
 30
0.0
  0
SPLINE
  5
188
100
AcDbEntity
  8
Layer_1
 62
7
100
AcDbSpline
 70
8
 71
3
 72
8
 73
4
 74
0
 40
0
 40
0
 40
0
 40
0
 40
1
 40
1
 40
1
 40
1
 10
-15.217645
 20
302.063514
 30
0.0
 10
-15.567172
 20
301.665418
 30
0.0
 10
-15.975198
 20
301.339703
 30
0.0
 10
-16.124370
 20
301.339703
 30
0.0
  0
SPLINE
  5
189
100
AcDbEntity
  8
Layer_1
 62
7
100
AcDbSpline
 70
8
 71
3
 72
8
 73
4
 74
0
 40
0
 40
0
 40
0
 40
0
 40
1
 40
1
 40
1
 40
1
 10
-16.124370
 20
301.339703
 30
0.0
 10
-16.392596
 20
301.339703
 30
0.0
 10
-16.769151
 20
302.214246
 30
0.0
 10
-17.632380
 20
304.842014
 30
0.0
  0
SPLINE
  5
18a
100
AcDbEntity
  8
Layer_1
 62
7
100
AcDbSpline
 70
8
 71
3
 72
8
 73
4
 74
0
 40
0
 40
0
 40
0
 40
0
 40
1
 40
1
 40
1
 40
1
 10
-17.632380
 20
304.842014
 30
0.0
 10
-18.144493
 20
306.400947
 30
0.0
 10
-18.515873
 20
306.992436
 30
0.0
 10
-18.852110
 20
306.784623
 30
0.0
  0
SPLINE
  5
18b
100
AcDbEntity
  8
Layer_1
 62
7
100
AcDbSpline
 70
8
 71
3
 72
8
 73
4
 74
0
 40
0
 40
0
 40
0
 40
0
 40
1
 40
1
 40
1
 40
1
 10
-18.852110
 20
306.784623
 30
0.0
 10
-19.276358
 20
306.522419
 30
0.0
 10
-20.731345
 20
304.230595
 30
0.0
 10
-21.352500
 20
302.846135
 30
0.0
  0
SPLINE
  5
18c
100
AcDbEntity
  8
Layer_1
 62
7
100
AcDbSpline
 70
8
 71
3
 72
8
 73
4
 74
0
 40
0
 40
0
 40
0
 40
0
 40
1
 40
1
 40
1
 40
1
 10
-21.352500
 20
302.846135
 30
0.0
 10
-22.169178
 20
301.025889
 30
0.0
 10
-24.235206
 20
294.982490
 30
0.0
 10
-24.162095
 20
294.627705
 30
0.0
  0
SPLINE
  5
18d
100
AcDbEntity
  8
Layer_1
 62
7
100
AcDbSpline
 70
8
 71
3
 72
8
 73
4
 74
0
 40
0
 40
0
 40
0
 40
0
 40
1
 40
1
 40
1
 40
1
 10
-24.162095
 20
294.627705
 30
0.0
 10
-24.122905
 20
294.437532
 30
0.0
 10
-23.656922
 20
294.682706
 30
0.0
 10
-22.747492
 20
295.371886
 30
0.0
  0
SPLINE
  5
18e
100
AcDbEntity
  8
Layer_1
 62
7
100
AcDbSpline
 70
8
 71
3
 72
8
 73
4
 74
0
 40
0
 40
0
 40
0
 40
0
 40
1
 40
1
 40
1
 40
1
 10
-22.747492
 20
295.371886
 30
0.0
 10
-18.317489
 20
298.729205
 30
0.0
 10
-10.077341
 20
303.475094
 30
0.0
 10
-10.077341
 20
302.669243
 30
0.0
  0
SPLINE
  5
18f
100
AcDbEntity
  8
Layer_1
 62
7
100
AcDbSpline
 70
8
 71
3
 72
8
 73
4
 74
0
 40
0
 40
0
 40
0
 40
0
 40
1
 40
1
 40
1
 40
1
 10
-10.077341
 20
302.669243
 30
0.0
 10
-10.077341
 20
302.339308
 30
0.0
 10
-11.984555
 20
299.680509
 30
0.0
 10
-12.532810
 20
299.246123
 30
0.0
  0
LINE
  5
190
100
AcDbEntity
  8
Layer_1
 62
7
100
AcDbLine
 10
-12.532810
 20
299.246123
 30
0.0
 11
-13.120981
 21
298.780116
 31
0.0
  0
LINE
  5
191
100
AcDbEntity
  8
Layer_1
 62
7
100
AcDbLine
 10
-13.120981
 20
298.780116
 30
0.0
 11
-11.779138
 21
293.795423
 31
0.0
  0
SPLINE
  5
192
100
AcDbEntity
  8
Layer_1
 62
7
100
AcDbSpline
 70
8
 71
3
 72
8
 73
4
 74
0
 40
0
 40
0
 40
0
 40
0
 40
1
 40
1
 40
1
 40
1
 10
-11.779138
 20
293.795423
 30
0.0
 10
-10.273488
 20
288.202211
 30
0.0
 10
-10.272199
 20
288.252662
 30
0.0
 10
-11.922770
 20
288.174461
 30
0.0
  0
SPLINE
  5
193
100
AcDbEntity
  8
Layer_1
 62
7
100
AcDbSpline
 70
8
 71
3
 72
8
 73
4
 74
0
 40
0
 40
0
 40
0
 40
0
 40
1
 40
1
 40
1
 40
1
 10
-11.922770
 20
288.174461
 30
0.0
 10
-12.976718
 20
288.124560
 30
0.0
 10
-12.824299
 20
287.821906
 30
0.0
 10
-14.307981
 20
292.910250
 30
0.0
  0
SPLINE
  5
194
100
AcDbEntity
  8
Layer_1
 62
7
100
AcDbSpline
 70
8
 71
3
 72
8
 73
4
 74
0
 40
0
 40
0
 40
0
 40
0
 40
1
 40
1
 40
1
 40
1
 10
-14.307981
 20
292.910250
 30
0.0
 10
-15.338067
 20
296.442972
 30
0.0
 10
-15.791583
 20
297.449126
 30
0.0
 10
-16.353836
 20
297.449126
 30
0.0
  0
SPLINE
  5
195
100
AcDbEntity
  8
Layer_1
 62
7
100
AcDbSpline
 70
8
 71
3
 72
8
 73
4
 74
0
 40
0
 40
0
 40
0
 40
0
 40
1
 40
1
 40
1
 40
1
 10
-16.353836
 20
297.449126
 30
0.0
 10
-16.951426
 20
297.449126
 30
0.0
 10
-21.354563
 20
294.367371
 30
0.0
 10
-22.991503
 20
292.803419
 30
0.0
  0
SPLINE
  5
196
100
AcDbEntity
  8
Layer_1
 62
7
100
AcDbSpline
 70
8
 71
3
 72
8
 73
4
 74
0
 40
0
 40
0
 40
0
 40
0
 40
1
 40
1
 40
1
 40
1
 10
-22.991503
 20
292.803419
 30
0.0
 10
-24.758816
 20
291.114914
 30
0.0
 10
-25.012430
 20
290.439484
 30
0.0
 10
-24.508215
 20
288.764080
 30
0.0
  0
SPLINE
  5
197
100
AcDbEntity
  8
Layer_1
 62
7
100
AcDbSpline
 70
8
 71
3
 72
8
 73
4
 74
0
 40
0
 40
0
 40
0
 40
0
 40
1
 40
1
 40
1
 40
1
 10
-24.508215
 20
288.764080
 30
0.0
 10
-24.270921
 20
287.975588
 30
0.0
 10
-24.275659
 20
287.842166
 30
0.0
 10
-24.544625
 20
287.738965
 30
0.0
  0
SPLINE
  5
198
100
AcDbEntity
  8
Layer_1
 62
7
100
AcDbSpline
 70
8
 71
3
 72
8
 73
4
 74
0
 40
0
 40
0
 40
0
 40
0
 40
1
 40
1
 40
1
 40
1
 10
-24.544625
 20
287.738965
 30
0.0
 10
-25.027633
 20
287.553612
 30
0.0
 10
-27.961560
 20
287.605923
 30
0.0
 10
-28.276663
 20
287.805466
 30
0.0
  0
LINE
  5
199
100
AcDbEntity
  8
Layer_1
 62
7
100
AcDbLine
 10
-28.276663
 20
287.805466
 30
0.0
 11
-28.276658
 21
287.805506
 31
0.0
  0
SPLINE
  5
19a
100
AcDbEntity
  8
Layer_1
 62
7
100
AcDbSpline
 70
8
 71
3
 72
8
 73
4
 74
0
 40
0
 40
0
 40
0
 40
0
 40
1
 40
1
 40
1
 40
1
 10
10.391267
 20
288.006558
 30
0.0
 10
7.368744
 20
288.630158
 30
0.0
 10
5.011180
 20
291.542290
 30
0.0
 10
4.984810
 20
294.684776
 30
0.0
  0
SPLINE
  5
19b
100
AcDbEntity
  8
Layer_1
 62
7
100
AcDbSpline
 70
8
 71
3
 72
8
 73
4
 74
0
 40
0
 40
0
 40
0
 40
0
 40
1
 40
1
 40
1
 40
1
 10
4.984810
 20
294.684776
 30
0.0
 10
4.955110
 20
298.221668
 30
0.0
 10
6.538746
 20
300.490291
 30
0.0
 10
9.571999
 20
301.256232
 30
0.0
  0
SPLINE
  5
19c
100
AcDbEntity
  8
Layer_1
 62
7
100
AcDbSpline
 70
8
 71
3
 72
8
 73
4
 74
0
 40
0
 40
0
 40
0
 40
0
 40
1
 40
1
 40
1
 40
1
 10
9.571999
 20
301.256232
 30
0.0
 10
11.865333
 20
301.835320
 30
0.0
 10
13.679149
 20
301.131930
 30
0.0
 10
14.411327
 20
299.379545
 30
0.0
  0
SPLINE
  5
19d
100
AcDbEntity
  8
Layer_1
 62
7
100
AcDbSpline
 70
8
 71
3
 72
8
 73
4
 74
0
 40
0
 40
0
 40
0
 40
0
 40
1
 40
1
 40
1
 40
1
 10
14.411327
 20
299.379545
 30
0.0
 10
14.579516
 20
298.977009
 30
0.0
 10
14.661456
 20
298.472311
 30
0.0
 10
14.593436
 20
298.257978
 30
0.0
  0
SPLINE
  5
19e
100
AcDbEntity
  8
Layer_1
 62
7
100
AcDbSpline
 70
8
 71
3
 72
8
 73
4
 74
0
 40
0
 40
0
 40
0
 40
0
 40
1
 40
1
 40
1
 40
1
 10
14.593436
 20
298.257978
 30
0.0
 10
14.525436
 20
298.043645
 30
0.0
 10
13.622949
 20
297.352465
 30
0.0
 10
12.587961
 20
296.722026
 30
0.0
  0
SPLINE
  5
19f
100
AcDbEntity
  8
Layer_1
 62
7
100
AcDbSpline
 70
8
 71
3
 72
8
 73
4
 74
0
 40
0
 40
0
 40
0
 40
0
 40
1
 40
1
 40
1
 40
1
 10
12.587961
 20
296.722026
 30
0.0
 10
11.552974
 20
296.091587
 30
0.0
 10
10.172647
 20
295.216144
 30
0.0
 10
9.520559
 20
294.776607
 30
0.0
  0
SPLINE
  5
1a0
100
AcDbEntity
  8
Layer_1
 62
7
100
AcDbSpline
 70
8
 71
3
 72
8
 73
4
 74
0
 40
0
 40
0
 40
0
 40
0
 40
1
 40
1
 40
1
 40
1
 10
9.520559
 20
294.776607
 30
0.0
 10
6.949385
 20
293.043512
 30
0.0
 10
8.502481
 20
295.536378
 30
0.0
 10
11.269274
 20
297.583458
 30
0.0
  0
SPLINE
  5
1a1
100
AcDbEntity
  8
Layer_1
 62
7
100
AcDbSpline
 70
8
 71
3
 72
8
 73
4
 74
0
 40
0
 40
0
 40
0
 40
0
 40
1
 40
1
 40
1
 40
1
 10
11.269274
 20
297.583458
 30
0.0
 10
12.354452
 20
298.386350
 30
0.0
 10
12.465792
 20
298.805546
 30
0.0
 10
11.767983
 20
299.461116
 30
0.0
  0
SPLINE
  5
1a2
100
AcDbEntity
  8
Layer_1
 62
7
100
AcDbSpline
 70
8
 71
3
 72
8
 73
4
 74
0
 40
0
 40
0
 40
0
 40
0
 40
1
 40
1
 40
1
 40
1
 10
11.767983
 20
299.461116
 30
0.0
 10
11.153585
 20
300.038314
 30
0.0
 10
10.532926
 20
300.023724
 30
0.0
 10
9.481209
 20
299.407315
 30
0.0
  0
SPLINE
  5
1a3
100
AcDbEntity
  8
Layer_1
 62
7
100
AcDbSpline
 70
8
 71
3
 72
8
 73
4
 74
0
 40
0
 40
0
 40
0
 40
0
 40
1
 40
1
 40
1
 40
1
 10
9.481209
 20
299.407315
 30
0.0
 10
7.554903
 20
298.278408
 30
0.0
 10
6.850275
 20
295.978615
 30
0.0
 10
7.650853
 20
293.433348
 30
0.0
  0
SPLINE
  5
1a4
100
AcDbEntity
  8
Layer_1
 62
7
100
AcDbSpline
 70
8
 71
3
 72
8
 73
4
 74
0
 40
0
 40
0
 40
0
 40
0
 40
1
 40
1
 40
1
 40
1
 10
7.650853
 20
293.433348
 30
0.0
 10
8.714841
 20
290.050588
 30
0.0
 10
12.260652
 20
288.351473
 30
0.0
 10
14.955015
 20
289.933256
 30
0.0
  0
SPLINE
  5
1a5
100
AcDbEntity
  8
Layer_1
 62
7
100
AcDbSpline
 70
8
 71
3
 72
8
 73
4
 74
0
 40
0
 40
0
 40
0
 40
0
 40
1
 40
1
 40
1
 40
1
 10
14.955015
 20
289.933256
 30
0.0
 10
16.121413
 20
290.618006
 30
0.0
 10
16.319252
 20
290.240111
 30
0.0
 10
15.262155
 20
289.346588
 30
0.0
  0
SPLINE
  5
1a6
100
AcDbEntity
  8
Layer_1
 62
7
100
AcDbSpline
 70
8
 71
3
 72
8
 73
4
 74
0
 40
0
 40
0
 40
0
 40
0
 40
1
 40
1
 40
1
 40
1
 10
15.262155
 20
289.346588
 30
0.0
 10
13.947278
 20
288.235172
 30
0.0
 10
11.948423
 20
287.685244
 30
0.0
 10
10.391267
 20
288.006498
 30
0.0
  0
LINE
  5
1a7
100
AcDbEntity
  8
Layer_1
 62
7
100
AcDbLine
 10
10.391267
 20
288.006498
 30
0.0
 11
10.391267
 21
288.006558
 31
0.0
  0
SPLINE
  5
1a8
100
AcDbEntity
  8
Layer_1
 62
7
100
AcDbSpline
 70
8
 71
3
 72
8
 73
4
 74
0
 40
0
 40
0
 40
0
 40
0
 40
1
 40
1
 40
1
 40
1
 10
-8.440336
 20
288.441435
 30
0.0
 10
-8.639995
 20
288.814510
 30
0.0
 10
-8.593477
 20
289.088074
 30
0.0
 10
-8.167251
 20
290.047418
 30
0.0
  0
LINE
  5
1a9
100
AcDbEntity
  8
Layer_1
 62
7
100
AcDbLine
 10
-8.167251
 20
290.047418
 30
0.0
 11
-7.653513
 21
291.203735
 31
0.0
  0
LINE
  5
1aa
100
AcDbEntity
  8
Layer_1
 62
7
100
AcDbLine
 10
-7.653513
 20
291.203735
 30
0.0
 11
-7.832803
 21
296.527673
 31
0.0
  0
SPLINE
  5
1ab
100
AcDbEntity
  8
Layer_1
 62
7
100
AcDbSpline
 70
8
 71
3
 72
8
 73
4
 74
0
 40
0
 40
0
 40
0
 40
0
 40
1
 40
1
 40
1
 40
1
 10
-7.832803
 20
296.527673
 30
0.0
 10
-7.990723
 20
301.217061
 30
0.0
 10
-8.196277
 20
304.346967
 30
0.0
 10
-8.552268
 20
307.482723
 30
0.0
  0
SPLINE
  5
1ac
100
AcDbEntity
  8
Layer_1
 62
7
100
AcDbSpline
 70
8
 71
3
 72
8
 73
4
 74
0
 40
0
 40
0
 40
0
 40
0
 40
1
 40
1
 40
1
 40
1
 10
-8.552268
 20
307.482723
 30
0.0
 10
-8.644808
 20
308.297855
 30
0.0
 10
-8.585588
 20
308.480957
 30
0.0
 10
-8.039032
 20
309.069666
 30
0.0
  0
SPLINE
  5
1ad
100
AcDbEntity
  8
Layer_1
 62
7
100
AcDbSpline
 70
8
 71
3
 72
8
 73
4
 74
0
 40
0
 40
0
 40
0
 40
0
 40
1
 40
1
 40
1
 40
1
 10
-8.039032
 20
309.069666
 30
0.0
 10
-7.309361
 20
309.855607
 30
0.0
 10
-7.247240
 20
309.869748
 30
0.0
 10
-7.035741
 20
309.298009
 30
0.0
  0
SPLINE
  5
1ae
100
AcDbEntity
  8
Layer_1
 62
7
100
AcDbSpline
 70
8
 71
3
 72
8
 73
4
 74
0
 40
0
 40
0
 40
0
 40
0
 40
1
 40
1
 40
1
 40
1
 10
-7.035741
 20
309.298009
 30
0.0
 10
-6.892701
 20
308.911324
 30
0.0
 10
-6.766222
 20
309.029385
 30
0.0
 10
-5.940154
 20
310.320564
 30
0.0
  0
SPLINE
  5
1af
100
AcDbEntity
  8
Layer_1
 62
7
100
AcDbSpline
 70
8
 71
3
 72
8
 73
4
 74
0
 40
0
 40
0
 40
0
 40
0
 40
1
 40
1
 40
1
 40
1
 10
-5.940154
 20
310.320564
 30
0.0
 10
-4.605987
 20
312.405895
 30
0.0
 10
-4.471327
 20
312.127311
 30
0.0
 10
-4.751206
 20
307.860968
 30
0.0
  0
SPLINE
  5
1b0
100
AcDbEntity
  8
Layer_1
 62
7
100
AcDbSpline
 70
8
 71
3
 72
8
 73
4
 74
0
 40
0
 40
0
 40
0
 40
0
 40
1
 40
1
 40
1
 40
1
 10
-4.751206
 20
307.860968
 30
0.0
 10
-4.871986
 20
306.019911
 30
0.0
 10
-5.025586
 20
301.703168
 30
0.0
 10
-5.092536
 20
298.268198
 30
0.0
  0
SPLINE
  5
1b1
100
AcDbEntity
  8
Layer_1
 62
7
100
AcDbSpline
 70
8
 71
3
 72
8
 73
4
 74
0
 40
0
 40
0
 40
0
 40
0
 40
1
 40
1
 40
1
 40
1
 10
-5.092536
 20
298.268198
 30
0.0
 10
-5.208675
 20
292.309471
 30
0.0
 10
-5.176036
 20
291.672082
 30
0.0
 10
-4.629617
 20
289.225376
 30
0.0
  0
SPLINE
  5
1b2
100
AcDbEntity
  8
Layer_1
 62
7
100
AcDbSpline
 70
8
 71
3
 72
8
 73
4
 74
0
 40
0
 40
0
 40
0
 40
0
 40
1
 40
1
 40
1
 40
1
 10
-4.629617
 20
289.225376
 30
0.0
 10
-4.470947
 20
288.514876
 30
0.0
 10
-4.840956
 20
288.323313
 30
0.0
 10
-6.732541
 20
288.136590
 30
0.0
  0
SPLINE
  5
1b3
100
AcDbEntity
  8
Layer_1
 62
7
100
AcDbSpline
 70
8
 71
3
 72
8
 73
4
 74
0
 40
0
 40
0
 40
0
 40
0
 40
1
 40
1
 40
1
 40
1
 10
-6.732541
 20
288.136590
 30
0.0
 10
-8.108390
 20
288.000778
 30
0.0
 10
-8.214661
 20
288.019749
 30
0.0
 10
-8.440336
 20
288.441435
 30
0.0
  0
LINE
  5
1b4
100
AcDbEntity
  8
Layer_1
 62
7
100
AcDbLine
 10
-8.440336
 20
288.441435
 30
0.0
 11
-8.440336
 21
288.441435
 31
0.0
  0
SPLINE
  5
1b5
100
AcDbEntity
  8
Layer_1
 62
7
100
AcDbSpline
 70
8
 71
3
 72
8
 73
4
 74
0
 40
0
 40
0
 40
0
 40
0
 40
1
 40
1
 40
1
 40
1
 10
16.339812
 20
288.081030
 30
0.0
 10
16.340812
 20
288.109230
 30
0.0
 10
16.522982
 20
288.708079
 30
0.0
 10
16.743621
 20
289.411899
 30
0.0
  0
SPLINE
  5
1b6
100
AcDbEntity
  8
Layer_1
 62
7
100
AcDbSpline
 70
8
 71
3
 72
8
 73
4
 74
0
 40
0
 40
0
 40
0
 40
0
 40
1
 40
1
 40
1
 40
1
 10
16.743621
 20
289.411899
 30
0.0
 10
17.379970
 20
291.441759
 30
0.0
 10
17.449939
 20
292.996091
 30
0.0
 10
17.056050
 20
296.352310
 30
0.0
  0
SPLINE
  5
1b7
100
AcDbEntity
  8
Layer_1
 62
7
100
AcDbSpline
 70
8
 71
3
 72
8
 73
4
 74
0
 40
0
 40
0
 40
0
 40
0
 40
1
 40
1
 40
1
 40
1
 10
17.056050
 20
296.352310
 30
0.0
 10
16.859681
 20
298.025465
 30
0.0
 10
16.576701
 20
299.787300
 30
0.0
 10
16.427192
 20
300.267477
 30
0.0
  0
SPLINE
  5
1b8
100
AcDbEntity
  8
Layer_1
 62
7
100
AcDbSpline
 70
8
 71
3
 72
8
 73
4
 74
0
 40
0
 40
0
 40
0
 40
0
 40
1
 40
1
 40
1
 40
1
 10
16.427192
 20
300.267477
 30
0.0
 10
16.170352
 20
301.092379
 30
0.0
 10
16.180132
 20
301.156550
 30
0.0
 10
16.604601
 20
301.430914
 30
0.0
  0
SPLINE
  5
1b9
100
AcDbEntity
  8
Layer_1
 62
7
100
AcDbSpline
 70
8
 71
3
 72
8
 73
4
 74
0
 40
0
 40
0
 40
0
 40
0
 40
1
 40
1
 40
1
 40
1
 10
16.604601
 20
301.430914
 30
0.0
 10
17.027540
 20
301.704298
 30
0.0
 10
19.094415
 20
302.568311
 30
0.0
 10
19.325435
 20
302.568311
 30
0.0
  0
SPLINE
  5
1ba
100
AcDbEntity
  8
Layer_1
 62
7
100
AcDbSpline
 70
8
 71
3
 72
8
 73
4
 74
0
 40
0
 40
0
 40
0
 40
0
 40
1
 40
1
 40
1
 40
1
 10
19.325435
 20
302.568311
 30
0.0
 10
19.383935
 20
302.568311
 30
0.0
 10
19.288435
 20
302.363518
 30
0.0
 10
19.113095
 20
302.113214
 30
0.0
  0
SPLINE
  5
1bb
100
AcDbEntity
  8
Layer_1
 62
7
100
AcDbSpline
 70
8
 71
3
 72
8
 73
4
 74
0
 40
0
 40
0
 40
0
 40
0
 40
1
 40
1
 40
1
 40
1
 10
19.113095
 20
302.113214
 30
0.0
 10
18.770266
 20
301.623757
 30
0.0
 10
18.670286
 20
299.906342
 30
0.0
 10
18.984616
 20
299.906342
 30
0.0
  0
SPLINE
  5
1bc
100
AcDbEntity
  8
Layer_1
 62
7
100
AcDbSpline
 70
8
 71
3
 72
8
 73
4
 74
0
 40
0
 40
0
 40
0
 40
0
 40
1
 40
1
 40
1
 40
1
 10
18.984616
 20
299.906342
 30
0.0
 10
19.089275
 20
299.906342
 30
0.0
 10
19.741294
 20
300.282548
 30
0.0
 10
20.433542
 20
300.742364
 30
0.0
  0
SPLINE
  5
1bd
100
AcDbEntity
  8
Layer_1
 62
7
100
AcDbSpline
 70
8
 71
3
 72
8
 73
4
 74
0
 40
0
 40
0
 40
0
 40
0
 40
1
 40
1
 40
1
 40
1
 10
20.433542
 20
300.742364
 30
0.0
 10
22.166598
 20
301.893511
 30
0.0
 10
23.100556
 20
302.273147
 30
0.0
 10
23.325725
 20
301.917981
 30
0.0
  0
SPLINE
  5
1be
100
AcDbEntity
  8
Layer_1
 62
7
100
AcDbSpline
 70
8
 71
3
 72
8
 73
4
 74
0
 40
0
 40
0
 40
0
 40
0
 40
1
 40
1
 40
1
 40
1
 10
23.325725
 20
301.917981
 30
0.0
 10
23.685584
 20
301.350403
 30
0.0
 10
23.468115
 20
300.964398
 30
0.0
 10
22.382297
 20
300.243447
 30
0.0
  0
SPLINE
  5
1bf
100
AcDbEntity
  8
Layer_1
 62
7
100
AcDbSpline
 70
8
 71
3
 72
8
 73
4
 74
0
 40
0
 40
0
 40
0
 40
0
 40
1
 40
1
 40
1
 40
1
 10
22.382297
 20
300.243447
 30
0.0
 10
20.710381
 20
299.133331
 30
0.0
 10
19.408515
 20
297.813022
 30
0.0
 10
19.409245
 20
297.228273
 30
0.0
  0
SPLINE
  5
1c0
100
AcDbEntity
  8
Layer_1
 62
7
100
AcDbSpline
 70
8
 71
3
 72
8
 73
4
 74
0
 40
0
 40
0
 40
0
 40
0
 40
1
 40
1
 40
1
 40
1
 10
19.409245
 20
297.228273
 30
0.0
 10
19.409585
 20
296.955569
 30
0.0
 10
19.588864
 20
295.810572
 30
0.0
 10
19.807624
 20
294.683826
 30
0.0
  0
SPLINE
  5
1c1
100
AcDbEntity
  8
Layer_1
 62
7
100
AcDbSpline
 70
8
 71
3
 72
8
 73
4
 74
0
 40
0
 40
0
 40
0
 40
0
 40
1
 40
1
 40
1
 40
1
 10
19.807624
 20
294.683826
 30
0.0
 10
20.026393
 20
293.557090
 30
0.0
 10
20.222413
 20
291.721733
 30
0.0
 10
20.243223
 20
290.605256
 30
0.0
  0
SPLINE
  5
1c2
100
AcDbEntity
  8
Layer_1
 62
7
100
AcDbSpline
 70
8
 71
3
 72
8
 73
4
 74
0
 40
0
 40
0
 40
0
 40
0
 40
1
 40
1
 40
1
 40
1
 10
20.243223
 20
290.605256
 30
0.0
 10
20.289823
 20
288.104860
 30
0.0
 10
20.222623
 20
288.029839
 30
0.0
 10
17.936138
 20
288.029839
 30
0.0
  0
SPLINE
  5
1c3
100
AcDbEntity
  8
Layer_1
 62
7
100
AcDbSpline
 70
8
 71
3
 72
8
 73
4
 74
0
 40
0
 40
0
 40
0
 40
0
 40
1
 40
1
 40
1
 40
1
 10
17.936138
 20
288.029839
 30
0.0
 10
17.056710
 20
288.029839
 30
0.0
 10
16.338362
 20
288.052839
 30
0.0
 10
16.339812
 20
288.081040
 30
0.0
  0
LINE
  5
1c4
100
AcDbEntity
  8
Layer_1
 62
7
100
AcDbLine
 10
16.339812
 20
288.081040
 30
0.0
 11
16.339812
 21
288.081030
 31
0.0
  0
SPLINE
  5
1c5
100
AcDbEntity
  8
Layer_1
 62
7
100
AcDbSpline
 70
8
 71
3
 72
8
 73
4
 74
0
 40
0
 40
0
 40
0
 40
0
 40
1
 40
1
 40
1
 40
1
 10
-1.229225
 20
288.738009
 30
0.0
 10
-1.466844
 20
289.040104
 30
0.0
 10
-1.712154
 20
289.672403
 30
0.0
 10
-1.774354
 20
290.143120
 30
0.0
  0
SPLINE
  5
1c6
100
AcDbEntity
  8
Layer_1
 62
7
100
AcDbSpline
 70
8
 71
3
 72
8
 73
4
 74
0
 40
0
 40
0
 40
0
 40
0
 40
1
 40
1
 40
1
 40
1
 10
-1.774354
 20
290.143120
 30
0.0
 10
-1.992383
 20
291.793154
 30
0.0
 10
-1.782354
 20
304.891305
 30
0.0
 10
-1.529044
 20
305.477873
 30
0.0
  0
SPLINE
  5
1c7
100
AcDbEntity
  8
Layer_1
 62
7
100
AcDbSpline
 70
8
 71
3
 72
8
 73
4
 74
0
 40
0
 40
0
 40
0
 40
0
 40
1
 40
1
 40
1
 40
1
 10
-1.529044
 20
305.477873
 30
0.0
 10
-1.110405
 20
306.445368
 30
0.0
 10
1.531338
 20
307.832248
 30
0.0
 10
2.021637
 20
307.341941
 30
0.0
  0
SPLINE
  5
1c8
100
AcDbEntity
  8
Layer_1
 62
7
100
AcDbSpline
 70
8
 71
3
 72
8
 73
4
 74
0
 40
0
 40
0
 40
0
 40
0
 40
1
 40
1
 40
1
 40
1
 10
2.021637
 20
307.341941
 30
0.0
 10
2.182397
 20
307.181178
 30
0.0
 10
2.094037
 20
306.891504
 30
0.0
 10
1.704928
 20
306.303486
 30
0.0
  0
SPLINE
  5
1c9
100
AcDbEntity
  8
Layer_1
 62
7
100
AcDbSpline
 70
8
 71
3
 72
8
 73
4
 74
0
 40
0
 40
0
 40
0
 40
0
 40
1
 40
1
 40
1
 40
1
 10
1.704928
 20
306.303486
 30
0.0
 10
1.299909
 20
305.691437
 30
0.0
 10
1.134739
 20
305.123788
 30
0.0
 10
1.042879
 20
304.028142
 30
0.0
  0
SPLINE
  5
1ca
100
AcDbEntity
  8
Layer_1
 62
7
100
AcDbSpline
 70
8
 71
3
 72
8
 73
4
 74
0
 40
0
 40
0
 40
0
 40
0
 40
1
 40
1
 40
1
 40
1
 10
1.042879
 20
304.028142
 30
0.0
 10
0.922270
 20
302.589451
 30
0.0
 10
0.927600
 20
302.568391
 30
0.0
 10
1.410919
 20
302.573741
 30
0.0
  0
SPLINE
  5
1cb
100
AcDbEntity
  8
Layer_1
 62
7
100
AcDbSpline
 70
8
 71
3
 72
8
 73
4
 74
0
 40
0
 40
0
 40
0
 40
0
 40
1
 40
1
 40
1
 40
1
 10
1.410919
 20
302.573741
 30
0.0
 10
1.680648
 20
302.576741
 30
0.0
 10
3.140804
 20
302.988167
 30
0.0
 10
4.655721
 20
303.488045
 30
0.0
  0
SPLINE
  5
1cc
100
AcDbEntity
  8
Layer_1
 62
7
100
AcDbSpline
 70
8
 71
3
 72
8
 73
4
 74
0
 40
0
 40
0
 40
0
 40
0
 40
1
 40
1
 40
1
 40
1
 10
4.655721
 20
303.488045
 30
0.0
 10
6.170637
 20
303.987932
 30
0.0
 10
7.434204
 20
304.372837
 30
0.0
 10
7.463644
 20
304.343387
 30
0.0
  0
SPLINE
  5
1cd
100
AcDbEntity
  8
Layer_1
 62
7
100
AcDbSpline
 70
8
 71
3
 72
8
 73
4
 74
0
 40
0
 40
0
 40
0
 40
0
 40
1
 40
1
 40
1
 40
1
 10
7.463644
 20
304.343387
 30
0.0
 10
7.493044
 20
304.313987
 30
0.0
 10
7.350084
 20
304.015112
 30
0.0
 10
7.145865
 20
303.679297
 30
0.0
  0
SPLINE
  5
1ce
100
AcDbEntity
  8
Layer_1
 62
7
100
AcDbSpline
 70
8
 71
3
 72
8
 73
4
 74
0
 40
0
 40
0
 40
0
 40
0
 40
1
 40
1
 40
1
 40
1
 10
7.145865
 20
303.679297
 30
0.0
 10
6.932145
 20
303.327852
 30
0.0
 10
6.088087
 20
302.669062
 30
0.0
 10
5.157009
 20
302.127005
 30
0.0
  0
SPLINE
  5
1cf
100
AcDbEntity
  8
Layer_1
 62
7
100
AcDbSpline
 70
8
 71
3
 72
8
 73
4
 74
0
 40
0
 40
0
 40
0
 40
0
 40
1
 40
1
 40
1
 40
1
 10
5.157009
 20
302.127005
 30
0.0
 10
4.267352
 20
301.609057
 30
0.0
 10
3.032655
 20
300.804215
 30
0.0
 10
2.413246
 20
300.338468
 30
0.0
  0
SPLINE
  5
1d0
100
AcDbEntity
  8
Layer_1
 62
7
100
AcDbSpline
 70
8
 71
3
 72
8
 73
4
 74
0
 40
0
 40
0
 40
0
 40
0
 40
1
 40
1
 40
1
 40
1
 10
2.413246
 20
300.338468
 30
0.0
 10
1.052049
 20
299.314954
 30
0.0
 10
1.016909
 20
299.171061
 30
0.0
 10
0.995070
 20
294.531204
 30
0.0
  0
SPLINE
  5
1d1
100
AcDbEntity
  8
Layer_1
 62
7
100
AcDbSpline
 70
8
 71
3
 72
8
 73
4
 74
0
 40
0
 40
0
 40
0
 40
0
 40
1
 40
1
 40
1
 40
1
 10
0.995070
 20
294.531204
 30
0.0
 10
0.981170
 20
291.567791
 30
0.0
 10
1.013169
 20
291.272886
 30
0.0
 10
1.389429
 20
290.896581
 30
0.0
  0
SPLINE
  5
1d2
100
AcDbEntity
  8
Layer_1
 62
7
100
AcDbSpline
 70
8
 71
3
 72
8
 73
4
 74
0
 40
0
 40
0
 40
0
 40
0
 40
1
 40
1
 40
1
 40
1
 10
1.389429
 20
290.896581
 30
0.0
 10
1.873387
 20
290.412604
 30
0.0
 10
1.782928
 20
290.418014
 30
0.0
 10
3.334684
 20
290.780199
 30
0.0
  0
LINE
  5
1d3
100
AcDbEntity
  8
Layer_1
 62
7
100
AcDbLine
 10
3.334684
 20
290.780199
 30
0.0
 11
4.563261
 21
291.066943
 31
0.0
  0
LINE
  5
1d4
100
AcDbEntity
  8
Layer_1
 62
7
100
AcDbLine
 10
4.563261
 20
291.066943
 30
0.0
 11
3.744203
 21
290.364903
 31
0.0
  0
SPLINE
  5
1d5
100
AcDbEntity
  8
Layer_1
 62
7
100
AcDbSpline
 70
8
 71
3
 72
8
 73
4
 74
0
 40
0
 40
0
 40
0
 40
0
 40
1
 40
1
 40
1
 40
1
 10
3.744203
 20
290.364903
 30
0.0
 10
2.307426
 20
289.133385
 30
0.0
 10
0.999590
 20
288.391294
 30
0.0
 10
0.084152
 20
288.288103
 30
0.0
  0
SPLINE
  5
1d6
100
AcDbEntity
  8
Layer_1
 62
7
100
AcDbSpline
 70
8
 71
3
 72
8
 73
4
 74
0
 40
0
 40
0
 40
0
 40
0
 40
1
 40
1
 40
1
 40
1
 10
0.084152
 20
288.288103
 30
0.0
 10
-0.688416
 20
288.201001
 30
0.0
 10
-0.850516
 20
288.256502
 30
0.0
 10
-1.229225
 20
288.738009
 30
0.0
  0
LINE
  5
1d7
100
AcDbEntity
  8
Layer_1
 62
7
100
AcDbLine
 10
-1.229225
 20
288.738009
 30
0.0
 11
-1.229225
 21
288.738009
 31
0.0
  0
SPLINE
  5
1d8
100
AcDbEntity
  8
Layer_1
 62
7
100
AcDbSpline
 70
8
 71
3
 72
8
 73
4
 74
0
 40
0
 40
0
 40
0
 40
0
 40
1
 40
1
 40
1
 40
1
 10
47.057727
 20
289.104874
 30
0.0
 10
47.064727
 20
289.411369
 30
0.0
 10
48.267324
 20
290.773059
 30
0.0
 10
48.407234
 20
290.633137
 30
0.0
  0
SPLINE
  5
1d9
100
AcDbEntity
  8
Layer_1
 62
7
100
AcDbSpline
 70
8
 71
3
 72
8
 73
4
 74
0
 40
0
 40
0
 40
0
 40
0
 40
1
 40
1
 40
1
 40
1
 10
48.407234
 20
290.633137
 30
0.0
 10
48.586963
 20
290.453414
 30
0.0
 10
48.239464
 20
289.464290
 30
0.0
 10
48.039915
 20
289.587612
 30
0.0
  0
SPLINE
  5
1da
100
AcDbEntity
  8
Layer_1
 62
7
100
AcDbSpline
 70
8
 71
3
 72
8
 73
4
 74
0
 40
0
 40
0
 40
0
 40
0
 40
1
 40
1
 40
1
 40
1
 10
48.039915
 20
289.587612
 30
0.0
 10
47.931735
 20
289.654513
 30
0.0
 10
47.792595
 20
289.515611
 30
0.0
 10
47.730735
 20
289.279047
 30
0.0
  0
SPLINE
  5
1db
100
AcDbEntity
  8
Layer_1
 62
7
100
AcDbSpline
 70
8
 71
3
 72
8
 73
4
 74
0
 40
0
 40
0
 40
0
 40
0
 40
1
 40
1
 40
1
 40
1
 10
47.730735
 20
289.279047
 30
0.0
 10
47.610826
 20
288.820490
 30
0.0
 10
47.047637
 20
288.674738
 30
0.0
 10
47.057727
 20
289.104874
 30
0.0
  0
LINE
  5
1dc
100
AcDbEntity
  8
Layer_1
 62
7
100
AcDbLine
 10
47.057727
 20
289.104874
 30
0.0
 11
47.057727
 21
289.104874
 31
0.0
  0
SPLINE
  5
1dd
100
AcDbEntity
  8
Layer_1
 62
7
100
AcDbSpline
 70
8
 71
3
 72
8
 73
4
 74
0
 40
0
 40
0
 40
0
 40
0
 40
1
 40
1
 40
1
 40
1
 10
48.192264
 20
291.487679
 30
0.0
 10
48.058515
 20
291.704113
 30
0.0
 10
48.645413
 20
292.237870
 30
0.0
 10
48.822463
 20
292.060818
 30
0.0
  0
SPLINE
  5
1de
100
AcDbEntity
  8
Layer_1
 62
7
100
AcDbSpline
 70
8
 71
3
 72
8
 73
4
 74
0
 40
0
 40
0
 40
0
 40
0
 40
1
 40
1
 40
1
 40
1
 10
48.822463
 20
292.060818
 30
0.0
 10
48.993075
 20
291.890195
 30
0.0
 10
48.746263
 20
291.306117
 30
0.0
 10
48.503583
 20
291.306117
 30
0.0
  0
SPLINE
  5
1df
100
AcDbEntity
  8
Layer_1
 62
7
100
AcDbSpline
 70
8
 71
3
 72
8
 73
4
 74
0
 40
0
 40
0
 40
0
 40
0
 40
1
 40
1
 40
1
 40
1
 10
48.503583
 20
291.306117
 30
0.0
 10
48.394074
 20
291.306117
 30
0.0
 10
48.253984
 20
291.387818
 30
0.0
 10
48.192264
 20
291.487679
 30
0.0
  0
LINE
  5
1e0
100
AcDbEntity
  8
Layer_1
 62
7
100
AcDbLine
 10
48.192264
 20
291.487679
 30
0.0
 11
48.192264
 21
291.487679
 31
0.0
  0
SPLINE
  5
1e1
100
AcDbEntity
  8
Layer_1
 62
7
100
AcDbSpline
 70
8
 71
3
 72
8
 73
4
 74
0
 40
0
 40
0
 40
0
 40
0
 40
1
 40
1
 40
1
 40
1
 10
49.508894
 20
291.896775
 30
0.0
 10
49.508894
 20
292.205420
 30
0.0
 10
50.064973
 20
292.792898
 30
0.0
 10
50.284772
 20
292.716467
 30
0.0
  0
SPLINE
  5
1e2
100
AcDbEntity
  8
Layer_1
 62
7
100
AcDbSpline
 70
8
 71
3
 72
8
 73
4
 74
0
 40
0
 40
0
 40
0
 40
0
 40
1
 40
1
 40
1
 40
1
 10
50.284772
 20
292.716467
 30
0.0
 10
50.413272
 20
292.671766
 30
0.0
 10
50.293772
 20
292.442523
 30
0.0
 10
50.010963
 20
292.191870
 30
0.0
  0
SPLINE
  5
1e3
100
AcDbEntity
  8
Layer_1
 62
7
100
AcDbSpline
 70
8
 71
3
 72
8
 73
4
 74
0
 40
0
 40
0
 40
0
 40
0
 40
1
 40
1
 40
1
 40
1
 10
50.010963
 20
292.191870
 30
0.0
 10
49.734823
 20
291.946996
 30
0.0
 10
49.508894
 20
291.814204
 30
0.0
 10
49.508894
 20
291.896775
 30
0.0
  0
LINE
  5
1e4
100
AcDbEntity
  8
Layer_1
 62
7
100
AcDbLine
 10
49.508894
 20
291.896775
 30
0.0
 11
49.508894
 21
291.896775
 31
0.0
  0
SPLINE
  5
1e5
100
AcDbEntity
  8
Layer_1
 62
7
100
AcDbSpline
 70
8
 71
3
 72
8
 73
4
 74
0
 40
0
 40
0
 40
0
 40
0
 40
1
 40
1
 40
1
 40
1
 10
49.611274
 20
293.558550
 30
0.0
 10
49.541674
 20
293.671171
 30
0.0
 10
49.582274
 20
293.763323
 30
0.0
 10
49.701574
 20
293.763323
 30
0.0
  0
SPLINE
  5
1e6
100
AcDbEntity
  8
Layer_1
 62
7
100
AcDbSpline
 70
8
 71
3
 72
8
 73
4
 74
0
 40
0
 40
0
 40
0
 40
0
 40
1
 40
1
 40
1
 40
1
 10
49.701574
 20
293.763323
 30
0.0
 10
49.820843
 20
293.763323
 30
0.0
 10
49.918423
 20
293.671122
 30
0.0
 10
49.918423
 20
293.558550
 30
0.0
  0
SPLINE
  5
1e7
100
AcDbEntity
  8
Layer_1
 62
7
100
AcDbSpline
 70
8
 71
3
 72
8
 73
4
 74
0
 40
0
 40
0
 40
0
 40
0
 40
1
 40
1
 40
1
 40
1
 10
49.918423
 20
293.558550
 30
0.0
 10
49.918423
 20
293.445938
 30
0.0
 10
49.877823
 20
293.353787
 30
0.0
 10
49.828123
 20
293.353787
 30
0.0
  0
SPLINE
  5
1e8
100
AcDbEntity
  8
Layer_1
 62
7
100
AcDbSpline
 70
8
 71
3
 72
8
 73
4
 74
0
 40
0
 40
0
 40
0
 40
0
 40
1
 40
1
 40
1
 40
1
 10
49.828123
 20
293.353787
 30
0.0
 10
49.778423
 20
293.353787
 30
0.0
 10
49.680884
 20
293.445988
 30
0.0
 10
49.611274
 20
293.558550
 30
0.0
  0
LINE
  5
1e9
100
AcDbEntity
  8
Layer_1
 62
7
100
AcDbLine
 10
49.611274
 20
293.558550
 30
0.0
 11
49.611274
 21
293.558550
 31
0.0
  0
SPLINE
  5
1ea
100
AcDbEntity
  8
Layer_1
 62
7
100
AcDbSpline
 70
8
 71
3
 72
8
 73
4
 74
0
 40
0
 40
0
 40
0
 40
0
 40
1
 40
1
 40
1
 40
1
 10
50.737481
 20
293.763323
 30
0.0
 10
50.737481
 20
293.875944
 30
0.0
 10
50.829581
 20
293.968085
 30
0.0
 10
50.942241
 20
293.968085
 30
0.0
  0
SPLINE
  5
1eb
100
AcDbEntity
  8
Layer_1
 62
7
100
AcDbSpline
 70
8
 71
3
 72
8
 73
4
 74
0
 40
0
 40
0
 40
0
 40
0
 40
1
 40
1
 40
1
 40
1
 10
50.942241
 20
293.968085
 30
0.0
 10
51.054860
 20
293.968085
 30
0.0
 10
51.147000
 20
293.875985
 30
0.0
 10
51.147000
 20
293.763323
 30
0.0
  0
SPLINE
  5
1ec
100
AcDbEntity
  8
Layer_1
 62
7
100
AcDbSpline
 70
8
 71
3
 72
8
 73
4
 74
0
 40
0
 40
0
 40
0
 40
0
 40
1
 40
1
 40
1
 40
1
 10
51.147000
 20
293.763323
 30
0.0
 10
51.147000
 20
293.650701
 30
0.0
 10
51.054900
 20
293.558550
 30
0.0
 10
50.942241
 20
293.558550
 30
0.0
  0
SPLINE
  5
1ed
100
AcDbEntity
  8
Layer_1
 62
7
100
AcDbSpline
 70
8
 71
3
 72
8
 73
4
 74
0
 40
0
 40
0
 40
0
 40
0
 40
1
 40
1
 40
1
 40
1
 10
50.942241
 20
293.558550
 30
0.0
 10
50.829621
 20
293.558550
 30
0.0
 10
50.737481
 20
293.650751
 30
0.0
 10
50.737481
 20
293.763323
 30
0.0
  0
LINE
  5
1ee
100
AcDbEntity
  8
Layer_1
 62
7
100
AcDbLine
 10
50.737481
 20
293.763323
 30
0.0
 11
50.737481
 21
293.763323
 31
0.0
  0
SPLINE
  5
1ef
100
AcDbEntity
  8
Layer_1
 62
7
100
AcDbSpline
 70
8
 71
3
 72
8
 73
4
 74
0
 40
0
 40
0
 40
0
 40
0
 40
1
 40
1
 40
1
 40
1
 10
-33.208825
 20
293.776923
 30
0.0
 10
-33.212625
 20
293.840724
 30
0.0
 10
-33.119275
 20
294.414152
 30
0.0
 10
-33.001507
 20
295.051241
 30
0.0
  0
SPLINE
  5
1f0
100
AcDbEntity
  8
Layer_1
 62
7
100
AcDbSpline
 70
8
 71
3
 72
8
 73
4
 74
0
 40
0
 40
0
 40
0
 40
0
 40
1
 40
1
 40
1
 40
1
 10
-33.001507
 20
295.051241
 30
0.0
 10
-32.722946
 20
296.558143
 30
0.0
 10
-32.984687
 20
297.529727
 30
0.0
 10
-34.023123
 20
298.843466
 30
0.0
  0
SPLINE
  5
1f1
100
AcDbEntity
  8
Layer_1
 62
7
100
AcDbSpline
 70
8
 71
3
 72
8
 73
4
 74
0
 40
0
 40
0
 40
0
 40
0
 40
1
 40
1
 40
1
 40
1
 10
-34.023123
 20
298.843466
 30
0.0
 10
-34.926660
 20
299.986543
 30
0.0
 10
-36.581055
 20
300.930187
 30
0.0
 10
-37.681572
 20
300.930187
 30
0.0
  0
SPLINE
  5
1f2
100
AcDbEntity
  8
Layer_1
 62
7
100
AcDbSpline
 70
8
 71
3
 72
8
 73
4
 74
0
 40
0
 40
0
 40
0
 40
0
 40
1
 40
1
 40
1
 40
1
 10
-37.681572
 20
300.930187
 30
0.0
 10
-38.726165
 20
300.930187
 30
0.0
 10
-39.859713
 20
300.201366
 30
0.0
 10
-40.306854
 20
299.242242
 30
0.0
  0
SPLINE
  5
1f3
100
AcDbEntity
  8
Layer_1
 62
7
100
AcDbSpline
 70
8
 71
3
 72
8
 73
4
 74
0
 40
0
 40
0
 40
0
 40
0
 40
1
 40
1
 40
1
 40
1
 10
-40.306854
 20
299.242242
 30
0.0
 10
-40.603339
 20
298.606283
 30
0.0
 10
-40.870459
 20
298.360749
 30
0.0
 10
-41.493023
 20
298.151936
 30
0.0
  0
SPLINE
  5
1f4
100
AcDbEntity
  8
Layer_1
 62
7
100
AcDbSpline
 70
8
 71
3
 72
8
 73
4
 74
0
 40
0
 40
0
 40
0
 40
0
 40
1
 40
1
 40
1
 40
1
 10
-41.493023
 20
298.151936
 30
0.0
 10
-42.013227
 20
297.977454
 30
0.0
 10
-42.420573
 20
297.948813
 30
0.0
 10
-42.648328
 20
298.070735
 30
0.0
  0
SPLINE
  5
1f5
100
AcDbEntity
  8
Layer_1
 62
7
100
AcDbSpline
 70
8
 71
3
 72
8
 73
4
 74
0
 40
0
 40
0
 40
0
 40
0
 40
1
 40
1
 40
1
 40
1
 10
-42.648328
 20
298.070735
 30
0.0
 10
-43.163752
 20
298.346579
 30
0.0
 10
-44.050200
 20
299.456566
 30
0.0
 10
-44.185453
 20
299.995463
 30
0.0
  0
SPLINE
  5
1f6
100
AcDbEntity
  8
Layer_1
 62
7
100
AcDbSpline
 70
8
 71
3
 72
8
 73
4
 74
0
 40
0
 40
0
 40
0
 40
0
 40
1
 40
1
 40
1
 40
1
 10
-44.185453
 20
299.995463
 30
0.0
 10
-44.314708
 20
300.510471
 30
0.0
 10
-43.795480
 20
301.954052
 30
0.0
 10
-43.480990
 20
301.954052
 30
0.0
  0
SPLINE
  5
1f7
100
AcDbEntity
  8
Layer_1
 62
7
100
AcDbSpline
 70
8
 71
3
 72
8
 73
4
 74
0
 40
0
 40
0
 40
0
 40
0
 40
1
 40
1
 40
1
 40
1
 10
-43.480990
 20
301.954052
 30
0.0
 10
-43.371819
 20
301.954052
 30
0.0
 10
-42.805570
 20
302.361158
 30
0.0
 10
-42.222657
 20
302.858725
 30
0.0
  0
SPLINE
  5
1f8
100
AcDbEntity
  8
Layer_1
 62
7
100
AcDbSpline
 70
8
 71
3
 72
8
 73
4
 74
0
 40
0
 40
0
 40
0
 40
0
 40
1
 40
1
 40
1
 40
1
 10
-42.222657
 20
302.858725
 30
0.0
 10
-41.205539
 20
303.726938
 30
0.0
 10
-41.094032
 20
303.769139
 30
0.0
 10
-39.456386
 20
303.905551
 30
0.0
  0
SPLINE
  5
1f9
100
AcDbEntity
  8
Layer_1
 62
7
100
AcDbSpline
 70
8
 71
3
 72
8
 73
4
 74
0
 40
0
 40
0
 40
0
 40
0
 40
1
 40
1
 40
1
 40
1
 10
-39.456386
 20
303.905551
 30
0.0
 10
-37.795123
 20
304.043943
 30
0.0
 10
-37.709946
 20
304.028712
 30
0.0
 10
-36.238387
 20
303.330212
 30
0.0
  0
SPLINE
  5
1fa
100
AcDbEntity
  8
Layer_1
 62
7
100
AcDbSpline
 70
8
 71
3
 72
8
 73
4
 74
0
 40
0
 40
0
 40
0
 40
0
 40
1
 40
1
 40
1
 40
1
 10
-36.238387
 20
303.330212
 30
0.0
 10
-34.610283
 20
302.557401
 30
0.0
 10
-33.002642
 20
301.025558
 30
0.0
 10
-32.455167
 20
299.725360
 30
0.0
  0
SPLINE
  5
1fb
100
AcDbEntity
  8
Layer_1
 62
7
100
AcDbSpline
 70
8
 71
3
 72
8
 73
4
 74
0
 40
0
 40
0
 40
0
 40
0
 40
1
 40
1
 40
1
 40
1
 10
-32.455167
 20
299.725360
 30
0.0
 10
-32.046595
 20
298.755045
 30
0.0
 10
-31.895066
 20
296.487902
 30
0.0
 10
-32.170891
 20
295.472078
 30
0.0
  0
SPLINE
  5
1fc
100
AcDbEntity
  8
Layer_1
 62
7
100
AcDbSpline
 70
8
 71
3
 72
8
 73
4
 74
0
 40
0
 40
0
 40
0
 40
0
 40
1
 40
1
 40
1
 40
1
 10
-32.170891
 20
295.472078
 30
0.0
 10
-32.365340
 20
294.755947
 30
0.0
 10
-33.187462
 20
293.413287
 30
0.0
 10
-33.208825
 20
293.776953
 30
0.0
  0
LINE
  5
1fd
100
AcDbEntity
  8
Layer_1
 62
7
100
AcDbLine
 10
-33.208825
 20
293.776953
 30
0.0
 11
-33.208825
 21
293.776923
 31
0.0
  0
SPLINE
  5
1fe
100
AcDbEntity
  8
Layer_1
 62
7
100
AcDbSpline
 70
8
 71
3
 72
8
 73
4
 74
0
 40
0
 40
0
 40
0
 40
0
 40
1
 40
1
 40
1
 40
1
 10
45.829330
 20
303.239801
 30
0.0
 10
45.012642
 20
303.653067
 30
0.0
 10
44.673973
 20
304.433308
 30
0.0
 10
44.985172
 20
305.184639
 30
0.0
  0
SPLINE
  5
1ff
100
AcDbEntity
  8
Layer_1
 62
7
100
AcDbSpline
 70
8
 71
3
 72
8
 73
4
 74
0
 40
0
 40
0
 40
0
 40
0
 40
1
 40
1
 40
1
 40
1
 10
44.985172
 20
305.184639
 30
0.0
 10
45.648030
 20
306.784953
 30
0.0
 10
48.090644
 20
306.339016
 30
0.0
 10
48.069035
 20
304.621631
 30
0.0
  0
SPLINE
  5
200
100
AcDbEntity
  8
Layer_1
 62
7
100
AcDbSpline
 70
8
 71
3
 72
8
 73
4
 74
0
 40
0
 40
0
 40
0
 40
0
 40
1
 40
1
 40
1
 40
1
 10
48.069035
 20
304.621631
 30
0.0
 10
48.061035
 20
304.018332
 30
0.0
 10
47.744405
 20
303.550575
 30
0.0
 10
47.116377
 20
303.216080
 30
0.0
  0
SPLINE
  5
201
100
AcDbEntity
  8
Layer_1
 62
7
100
AcDbSpline
 70
8
 71
3
 72
8
 73
4
 74
0
 40
0
 40
0
 40
0
 40
0
 40
1
 40
1
 40
1
 40
1
 10
47.116377
 20
303.216080
 30
0.0
 10
46.560748
 20
302.920136
 30
0.0
 10
46.457288
 20
302.922046
 30
0.0
 10
45.829330
 20
303.239780
 30
0.0
  0
LINE
  5
202
100
AcDbEntity
  8
Layer_1
 62
7
100
AcDbLine
 10
45.829330
 20
303.239780
 30
0.0
 11
45.829330
 21
303.239801
 31
0.0
  0
SPLINE
  5
203
100
AcDbEntity
  8
Layer_1
 62
7
100
AcDbSpline
 70
8
 71
3
 72
8
 73
4
 74
0
 40
0
 40
0
 40
0
 40
0
 40
1
 40
1
 40
1
 40
1
 10
47.291556
 20
303.726288
 30
0.0
 10
48.091214
 20
304.449978
 30
0.0
 10
47.515636
 20
305.844599
 30
0.0
 10
46.417309
 20
305.844599
 30
0.0
  0
SPLINE
  5
204
100
AcDbEntity
  8
Layer_1
 62
7
100
AcDbSpline
 70
8
 71
3
 72
8
 73
4
 74
0
 40
0
 40
0
 40
0
 40
0
 40
1
 40
1
 40
1
 40
1
 10
46.417309
 20
305.844599
 30
0.0
 10
45.807720
 20
305.844599
 30
0.0
 10
45.208852
 20
305.213180
 30
0.0
 10
45.208852
 20
304.570440
 30
0.0
  0
SPLINE
  5
205
100
AcDbEntity
  8
Layer_1
 62
7
100
AcDbSpline
 70
8
 71
3
 72
8
 73
4
 74
0
 40
0
 40
0
 40
0
 40
0
 40
1
 40
1
 40
1
 40
1
 10
45.208852
 20
304.570440
 30
0.0
 10
45.208852
 20
304.067623
 30
0.0
 10
45.935420
 20
303.387403
 30
0.0
 10
46.472498
 20
303.387403
 30
0.0
  0
SPLINE
  5
206
100
AcDbEntity
  8
Layer_1
 62
7
100
AcDbSpline
 70
8
 71
3
 72
8
 73
4
 74
0
 40
0
 40
0
 40
0
 40
0
 40
1
 40
1
 40
1
 40
1
 10
46.472498
 20
303.387403
 30
0.0
 10
46.717038
 20
303.387403
 30
0.0
 10
47.085607
 20
303.539895
 30
0.0
 10
47.291556
 20
303.726288
 30
0.0
  0
LINE
  5
207
100
AcDbEntity
  8
Layer_1
 62
7
100
AcDbLine
 10
47.291556
 20
303.726288
 30
0.0
 11
47.291556
 21
303.726288
 31
0.0
  0
SPLINE
  5
208
100
AcDbEntity
  8
Layer_1
 62
7
100
AcDbSpline
 70
8
 71
3
 72
8
 73
4
 74
0
 40
0
 40
0
 40
0
 40
0
 40
1
 40
1
 40
1
 40
1
 10
45.823140
 20
304.616001
 30
0.0
 10
45.823140
 20
305.390522
 30
0.0
 10
45.856740
 20
305.435063
 30
0.0
 10
46.440689
 20
305.435063
 30
0.0
  0
SPLINE
  5
209
100
AcDbEntity
  8
Layer_1
 62
7
100
AcDbSpline
 70
8
 71
3
 72
8
 73
4
 74
0
 40
0
 40
0
 40
0
 40
0
 40
1
 40
1
 40
1
 40
1
 10
46.440689
 20
305.435063
 30
0.0
 10
46.989807
 20
305.435063
 30
0.0
 10
47.053427
 20
305.372062
 30
0.0
 10
47.014877
 20
304.866095
 30
0.0
  0
SPLINE
  5
20a
100
AcDbEntity
  8
Layer_1
 62
7
100
AcDbSpline
 70
8
 71
3
 72
8
 73
4
 74
0
 40
0
 40
0
 40
0
 40
0
 40
1
 40
1
 40
1
 40
1
 10
47.014877
 20
304.866095
 30
0.0
 10
46.990977
 20
304.553170
 30
0.0
 10
47.041077
 20
304.184585
 30
0.0
 10
47.126097
 20
304.047033
 30
0.0
  0
SPLINE
  5
20b
100
AcDbEntity
  8
Layer_1
 62
7
100
AcDbSpline
 70
8
 71
3
 72
8
 73
4
 74
0
 40
0
 40
0
 40
0
 40
0
 40
1
 40
1
 40
1
 40
1
 10
47.126097
 20
304.047033
 30
0.0
 10
47.211097
 20
303.909481
 30
0.0
 10
47.192897
 20
303.796929
 30
0.0
 10
47.085697
 20
303.796929
 30
0.0
  0
SPLINE
  5
20c
100
AcDbEntity
  8
Layer_1
 62
7
100
AcDbSpline
 70
8
 71
3
 72
8
 73
4
 74
0
 40
0
 40
0
 40
0
 40
0
 40
1
 40
1
 40
1
 40
1
 10
47.085697
 20
303.796929
 30
0.0
 10
46.978477
 20
303.796929
 30
0.0
 10
46.837718
 20
303.935151
 30
0.0
 10
46.772898
 20
304.104083
 30
0.0
  0
SPLINE
  5
20d
100
AcDbEntity
  8
Layer_1
 62
7
100
AcDbSpline
 70
8
 71
3
 72
8
 73
4
 74
0
 40
0
 40
0
 40
0
 40
0
 40
1
 40
1
 40
1
 40
1
 10
46.772898
 20
304.104083
 30
0.0
 10
46.708098
 20
304.273016
 30
0.0
 10
46.559988
 20
304.411238
 30
0.0
 10
46.443838
 20
304.411238
 30
0.0
  0
SPLINE
  5
20e
100
AcDbEntity
  8
Layer_1
 62
7
100
AcDbSpline
 70
8
 71
3
 72
8
 73
4
 74
0
 40
0
 40
0
 40
0
 40
0
 40
1
 40
1
 40
1
 40
1
 10
46.443838
 20
304.411238
 30
0.0
 10
46.327689
 20
304.411238
 30
0.0
 10
46.232649
 20
304.273016
 30
0.0
 10
46.232649
 20
304.104083
 30
0.0
  0
SPLINE
  5
20f
100
AcDbEntity
  8
Layer_1
 62
7
100
AcDbSpline
 70
8
 71
3
 72
8
 73
4
 74
0
 40
0
 40
0
 40
0
 40
0
 40
1
 40
1
 40
1
 40
1
 10
46.232649
 20
304.104083
 30
0.0
 10
46.232649
 20
303.935151
 30
0.0
 10
46.140549
 20
303.796929
 30
0.0
 10
46.027890
 20
303.796929
 30
0.0
  0
SPLINE
  5
210
100
AcDbEntity
  8
Layer_1
 62
7
100
AcDbSpline
 70
8
 71
3
 72
8
 73
4
 74
0
 40
0
 40
0
 40
0
 40
0
 40
1
 40
1
 40
1
 40
1
 10
46.027890
 20
303.796929
 30
0.0
 10
45.915260
 20
303.796929
 30
0.0
 10
45.823120
 20
304.165514
 30
0.0
 10
45.823120
 20
304.616001
 30
0.0
  0
LINE
  5
211
100
AcDbEntity
  8
Layer_1
 62
7
100
AcDbLine
 10
45.823120
 20
304.616001
 30
0.0
 11
45.823140
 21
304.616001
 31
0.0
  0
SPLINE
  5
212
100
AcDbEntity
  8
Layer_1
 62
7
100
AcDbSpline
 70
8
 71
3
 72
8
 73
4
 74
0
 40
0
 40
0
 40
0
 40
0
 40
1
 40
1
 40
1
 40
1
 10
46.731318
 20
305.046997
 30
0.0
 10
46.552638
 20
305.336111
 30
0.0
 10
46.232669
 20
305.260770
 30
0.0
 10
46.232669
 20
304.929575
 30
0.0
  0
SPLINE
  5
213
100
AcDbEntity
  8
Layer_1
 62
7
100
AcDbSpline
 70
8
 71
3
 72
8
 73
4
 74
0
 40
0
 40
0
 40
0
 40
0
 40
1
 40
1
 40
1
 40
1
 10
46.232669
 20
304.929575
 30
0.0
 10
46.232669
 20
304.746903
 30
0.0
 10
46.352779
 20
304.674952
 30
0.0
 10
46.538638
 20
304.746263
 30
0.0
  0
SPLINE
  5
214
100
AcDbEntity
  8
Layer_1
 62
7
100
AcDbSpline
 70
8
 71
3
 72
8
 73
4
 74
0
 40
0
 40
0
 40
0
 40
0
 40
1
 40
1
 40
1
 40
1
 10
46.538638
 20
304.746263
 30
0.0
 10
46.706918
 20
304.810864
 30
0.0
 10
46.793628
 20
304.946176
 30
0.0
 10
46.731318
 20
305.046997
 30
0.0
  0
LINE
  5
215
100
AcDbEntity
  8
Layer_1
 62
7
100
AcDbLine
 10
46.731318
 20
305.046997
 30
0.0
 11
46.731318
 21
305.046997
 31
0.0
  0
ENDSEC
  0
SECTION
  2
OBJECTS
  0
DICTIONARY
  5
C
330
0
100
AcDbDictionary
  3
ACAD_GROUP
350
D
  3
ACAD_MLINESTYLE
350
17
  0
DICTIONARY
  5
D
330
C
100
AcDbDictionary
  0
DICTIONARY
  5
1A
330
C
100
AcDbDictionary
  0
DICTIONARY
  5
17
330
C
100
AcDbDictionary
  3
STANDARD
350
18
  0
DICTIONARY
  5
19
330
C
100
AcDbDictionary
  0
ENDSEC
  0
EOF
