<?xml version="1.0" encoding="UTF-8" standalone="no"?>
<!-- Created with Inkscape (http://www.inkscape.org/) -->

<svg
   width="210mm"
   height="297mm"
   viewBox="0 0 210 297"
   version="1.1"
   id="svg1"
   xml:space="preserve"
   inkscape:version="1.4 (e7c3feb1, 2024-10-09)"
   sodipodi:docname="altered-logo-black.svg"
   xmlns:inkscape="http://www.inkscape.org/namespaces/inkscape"
   xmlns:sodipodi="http://sodipodi.sourceforge.net/DTD/sodipodi-0.dtd"
   xmlns="http://www.w3.org/2000/svg"
   xmlns:svg="http://www.w3.org/2000/svg"><sodipodi:namedview
     id="namedview1"
     pagecolor="#505050"
     bordercolor="#eeeeee"
     borderopacity="1"
     inkscape:showpageshadow="0"
     inkscape:pageopacity="0"
     inkscape:pagecheckerboard="0"
     inkscape:deskcolor="#505050"
     inkscape:document-units="mm"
     inkscape:zoom="0.87527671"
     inkscape:cx="228.49917"
     inkscape:cy="-2.8562396"
     inkscape:window-width="1920"
     inkscape:window-height="1080"
     inkscape:window-x="0"
     inkscape:window-y="0"
     inkscape:window-maximized="0"
     inkscape:current-layer="layer1" /><defs
     id="defs1" /><g
     inkscape:label="Layer 1"
     inkscape:groupmode="layer"
     id="layer1"><path
       style="fill:#000000;stroke-width:0.580437"
       d="m -44.483249,13.605069 c -2.199175,-0.803562 -4.111156,-1.535573 -4.248846,-1.626694 -0.177448,-0.117422 -0.250345,-0.999275 -0.250345,-3.0284741 0,-2.4587159 -0.0578,-2.9761235 -0.409527,-3.6655635 -0.225241,-0.4415165 -0.409528,-0.9229635 -0.409528,-1.0699057 0,-0.1469321 -0.184288,-0.6109889 -0.409527,-1.031245 -0.225241,-0.4202561 -0.409527,-0.9374737 -0.409527,-1.1493768 0,-0.2118931 -0.133815,-0.7055303 -0.297365,-1.09696599 -0.570358,-1.36508992 0.0137,-6.91470091 0.727728,-6.91470091 0.110826,0 0.12528,0.2376235 0.03426,0.5631182 -0.227151,0.8122619 -0.119959,2.4778862 0.221803,3.4465203 0.174503,0.4945772 0.252449,1.2121277 0.190947,1.75777567 -0.118691,1.05304537 0.160977,1.71748503 1.205531,2.86413183 0.374776,0.411406 0.846962,0.9873144 1.049305,1.2797986 0.202343,0.2924743 0.501552,0.5317778 0.664907,0.5317778 0.163357,0 0.858995,0.413716 1.545863,0.9193734 2.722005,2.0038593 5.500666,2.0274696 7.734944,0.065701 1.086246,-0.9537539 1.619987,-2.74075 1.275951,-4.2719724 -0.223132,-0.99309446 -0.696135,-1.54172247 -1.497956,-1.73743532 -0.49286,-0.12029176 -0.729021,0.0394006 -2.076518,1.4045705 -1.339407,1.35692982 -1.634321,1.55738272 -2.47722,1.68378462 -0.708209,0.1062115 -1.158586,0.052501 -1.733418,-0.2067231 -0.427135,-0.1926128 -0.988591,-0.3191446 -1.247677,-0.2811741 -0.370432,0.054301 -0.513344,-0.062201 -0.668957,-0.5452479 -0.108839,-0.337875 -0.516869,-1.02895504 -0.906733,-1.53576244 -0.681975,-0.88652294 -0.705596,-0.97578426 -0.623121,-2.35481436 0.106279,-1.7770859 0.787937,-3.5859723 1.768512,-4.6930285 0.407121,-0.4596267 0.841359,-1.0199749 0.964975,-1.2452282 0.123616,-0.2252333 0.799708,-0.7090003 1.502427,-1.0750257 1.201993,-0.6260689 1.40093,-0.6649599 3.358609,-0.6565699 1.945097,0.008 2.855351,0.115112 4.312687,0.5059177 1.067712,0.2863242 0.383115,-0.2980543 -1.306281,-1.1150367 -1.510151,-0.7303 -1.717109,-0.773891 -4.294113,-0.904313 -2.526094,-0.127852 -2.771465,-0.106711 -3.662317,0.315645 l -0.954822,0.452676 1.126199,0.112132 1.1262,0.112142 -1.330963,0.6835797 c -1.823539,0.9365537 -2.378287,1.508662 -3.305088,3.4085498 l -0.797549,1.6349138 0.05487,-5.1159546 0.05487,-5.1159647 h 8.702456 8.702456 l 0.122606,3.378659 c 0.134266,3.6999943 0.179858,3.9392778 1.404534,7.3716179 0.808627,2.2663031 0.835325,2.4202453 0.710203,4.09533977 -0.07151,0.95728397 -0.184753,1.83040673 -0.251664,1.94025833 -0.06691,0.1098616 -0.235755,-0.3969458 -0.375212,-1.12621645 -0.506843,-2.65050865 -0.844945,-3.79750545 -1.329632,-4.51068585 -1.080035,-1.5892132 -2.047925,-2.605418 -2.588843,-2.7180697 -0.307276,-0.064001 -1.051479,-0.4366863 -1.653783,-0.828192 -0.894681,-0.5815585 -1.368265,-0.7374408 -2.58767,-0.8517025 -1.923183,-0.1802226 -2.733314,-0.0219 -4.603102,0.8997632 -1.666337,0.821342 -2.679682,1.8923176 -3.091694,3.2675177 -0.369078,1.2318979 0.227766,2.9608832 1.444059,4.18329101 1.115977,1.12157639 1.736457,1.23374799 2.869159,0.51867757 0.394171,-0.24884363 0.898195,-0.54930802 1.120054,-0.66771975 0.360636,-0.19246281 0.798085,-0.75231098 1.451658,-1.85784713 0.162655,-0.275134 0.444421,-0.3582452 1.1262,-0.3322148 1.565375,0.059801 2.508571,1.0600854 2.925113,3.10217524 0.255856,1.25433836 0.234497,1.65973426 -0.193243,3.66788356 -0.05731,0.2690539 -0.670726,1.0470053 -1.363148,1.7287752 -1.200971,1.1824873 -1.343238,1.2597984 -3.089159,1.6788645 -2.040831,0.4898572 -3.104697,0.411976 -4.901588,-0.3588352 -0.538372,-0.2309434 -1.040043,-0.3587153 -1.114824,-0.2839342 -0.276386,0.2763941 0.714475,0.958144 2.403851,1.6539342 2.728042,1.1235864 4.367924,0.9550339 7.641431,-0.7854315 0.769538,-0.409146 1.549862,-0.7439109 1.734051,-0.7439109 0.184191,0 0.798508,-0.4581166 1.365149,-1.0180348 l 1.030257,-1.0180349 -0.06374,3.219287 c -0.04228,2.1359115 -0.145648,3.3009985 -0.307146,3.4621105 -0.133875,0.133552 -1.164847,0.563088 -2.291047,0.954514 -1.1262,0.391436 -2.912504,1.042355 -3.969564,1.446501 -1.057062,0.404146 -2.070641,0.724231 -2.252401,0.71128 -0.18176,-0.0129 -2.129799,-0.680989 -4.328973,-1.484561 z M 38.912437,9.1163933 C 37.400551,7.8790152 37.46831,7.5384803 39.146316,7.9410361 41.439181,8.4910842 42.841267,7.7907139 43.801415,5.6157022 44.394224,4.2728126 44.433313,1.9095381 43.886915,0.44360671 43.333176,-1.042155 41.77056,-3.5957022 40.636463,-4.8681608 39.733445,-5.8813456 38.408558,-6.796919 37.84547,-6.796919 c -0.14257,0 -0.21292,1.9957692 -0.21292,6.0406282 0,5.3580582 0.0364,6.0406282 0.322159,6.0406282 0.723628,0 0.10447,0.7735813 -1.448366,1.8095864 C 33.75645,8.9285705 33.36879,9.0590025 30.670577,9.0574324 27.858184,9.0554324 26.965446,8.7369078 25.26142,7.1252842 23.656534,5.6074321 22.994116,4.0533994 22.992886,1.8032966 c -0.002,-2.74294008 0.984537,-4.4223046 3.297262,-5.615732 2.120345,-1.094146 4.303469,-0.8567325 5.589376,0.6078489 0.615029,0.7005002 1.000628,1.918228 0.740628,2.3389241 -0.0763,0.1234018 -1.159887,0.73654075 -2.408054,1.36252989 -1.248177,0.62598911 -2.625103,1.36270991 -3.059852,1.63716391 -0.714479,0.4510366 -0.803298,0.4655568 -0.923998,0.1510022 -0.14356,-0.3741055 0.578748,-1.094006 2.087555,-2.08059038 0.450479,-0.2945643 1.163427,-0.79931166 1.584336,-1.12165637 0.755788,-0.57881845 0.761378,-0.59362865 0.450909,-1.19402745 -0.681729,-1.3183292 -2.451064,-1.1191563 -3.854081,0.4338564 -1.647776,1.82391658 -1.411726,4.8306705 0.584709,7.4481787 1.173807,1.5389624 4.02227,2.3612944 6.132585,1.7704258 0.721628,-0.2020429 0.957767,-0.3828356 1.124387,-0.8608326 0.468539,-1.3440596 0.646298,-4.1639507 0.578499,-9.1772039 -0.0713,-5.276877 -0.16483,-5.9472368 -0.866908,-6.2166507 -0.26653,-0.1022815 -0.27566,-0.1908928 -0.0569,-0.5522181 0.231099,-0.3816656 0.191069,-0.4922972 -0.353699,-0.977294 -0.337849,-0.300795 -0.788318,-0.752581 -1.001038,-1.003955 l -0.386749,-0.457057 0.895998,-0.380535 c 1.462406,-0.621089 2.054025,-0.363715 6.008045,2.613698 2.739594,2.0629401 3.704031,2.9187126 4.469779,3.9661379 1.247117,1.7058649 2.506254,4.2019713 2.907633,5.76406412 0.410799,1.59872338 0.413949,3.45816048 0.006,3.79636538 -0.287489,0.2385835 -0.438999,1.023835 -0.197559,1.023835 0.0603,0 0.332649,-0.1461622 0.605288,-0.3248048 0.648169,-0.4247062 1.077488,-0.1850527 0.604599,0.337505 -0.18995,0.209883 -0.28842,0.5298877 -0.21885,0.7111903 0.0696,0.1812827 0.0283,0.5131375 -0.0918,0.7374508 -0.17365,0.3244747 -0.34435,0.3801556 -0.835078,0.272374 C 45.926399,6.7079681 45.678879,6.7813892 45.29395,7.1429845 44.593492,7.8010441 44.674072,8.0131672 45.56666,7.860865 L 46.334528,7.7298531 45.670749,8.345582 c -0.566878,0.5258577 -0.740678,0.5864886 -1.190717,0.4153861 -0.914717,-0.3477851 -1.493546,-0.2234233 -2.879703,0.618709 -0.741508,0.4504866 -1.361806,0.8111919 -1.378456,0.8015719 -0.0167,-0.01 -0.606129,-0.4888173 -1.309967,-1.0648557 z m -67.189095,0.078101 c -0.238314,-0.1509422 -0.226618,-0.4626767 0.07479,-1.9933391 0.196505,-0.9979345 0.432318,-1.9574885 0.524029,-2.1323611 0.09171,-0.1748625 0.320711,-1.096316 0.508889,-2.0476699 0.415823,-2.10223065 3.102761,-9.1350033 4.298712,-11.2514042 0.477307,-0.8446723 1.193297,-2.134701 1.591088,-2.866742 0.397791,-0.73204 0.956092,-1.549172 1.240668,-1.815856 0.640569,-0.600269 2.308468,-0.959684 2.750621,-0.592719 0.42184,0.350095 1.152443,1.550983 1.465352,2.408575 1.50705,4.1304005 1.58583,4.9162319 0.604864,6.0335082 -0.349527,0.3980958 -0.757553,0.7238106 -0.906725,0.7238106 -0.268226,0 -0.644781,-0.8745428 -1.50801,-3.5023111 -0.512113,-1.5589328 -0.883493,-2.1504214 -1.21973,-1.9426084 -0.424248,0.2622039 -1.879235,2.5540273 -2.50039,3.9384875 -0.816678,1.8202466 -2.882706,7.8636448 -2.809595,8.21843 0.03919,0.1901727 0.505173,-0.055001 1.414603,-0.7441809 4.430003,-3.357319 12.670151,-8.1032083 12.670151,-7.2973565 0,0.3299348 -1.907214,2.9887336 -2.455469,3.42312 l -0.588171,0.4660068 1.341843,4.9846927 c 1.50565,5.5932116 1.506939,5.5427609 -0.143632,5.620962 -1.053948,0.049901 -0.901529,0.3525552 -2.385211,-4.7357891 -1.030086,-3.53272153 -1.483602,-4.53887622 -2.045855,-4.53887622 -0.59759,0 -5.000727,3.08175502 -6.637667,4.64570782 -1.767313,1.6885046 -2.020927,2.3639345 -1.516712,4.0393389 0.237294,0.7884915 0.232556,0.9219135 -0.03641,1.025115 -0.483008,0.1853527 -3.416935,0.1330419 -3.732038,-0.066501 z M 10.391267,8.9934415 C 7.368744,8.3698424 5.0111798,5.4577099 4.9848098,2.315224 c -0.0297,-3.5368916 1.5539362,-5.8055147 4.5871888,-6.5714559 2.2933344,-0.5790884 4.1071504,0.1243018 4.8393284,1.8766874 0.168189,0.4025359 0.250129,0.9072332 0.182109,1.1215664 -0.068,0.2143331 -0.970487,0.90551319 -2.005475,1.53595239 C 11.552974,0.9084135 10.172647,1.7838563 9.5205587,2.2233927 6.949385,3.956488 8.5024812,1.4636216 11.269274,-0.58345828 12.354452,-1.38635 12.465792,-1.8055461 11.767983,-2.4611157 c -0.614398,-0.5771984 -1.235057,-0.5626082 -2.2867742,0.053801 -1.9263053,1.1289065 -2.6309335,3.4287 -1.8303555,5.9739672 1.0639874,3.3827594 4.6097987,5.0818742 7.3041617,3.5000911 1.166398,-0.68475 1.364237,-0.3068545 0.30714,0.5866685 -1.314877,1.1114163 -3.313732,1.6613443 -4.870888,1.3400896 z M -8.4403364,8.5585651 C -8.6399949,8.1854897 -8.593477,7.9119257 -8.167251,6.9525817 L -7.6535133,5.7962648 -7.8328029,0.47232713 C -7.9907225,-4.2170613 -8.196277,-7.346967 -8.5522681,-10.482723 c -0.09254,-0.815132 -0.03332,-0.998234 0.5132357,-1.586943 0.7296713,-0.785941 0.7917921,-0.800082 1.0032916,-0.228343 0.1430396,0.386685 0.2695193,0.268624 1.0955873,-1.022555 1.3341668,-2.085331 1.4688264,-1.806747 1.1889471,2.459596 -0.1207797,1.8410566 -0.2743793,6.1577996 -0.3413292,9.5927697 -0.1161397,5.958727 -0.0835,6.5961163 0.4629189,9.042822 0.1586696,0.7105004 -0.2113395,0.9020632 -2.1029248,1.0887859 -1.3758487,0.135812 -1.4821194,0.1168417 -1.7077949,-0.3048445 z M 16.339812,8.9189704 c 0.001,-0.0282 0.18317,-0.6270491 0.403809,-1.3308694 C 17.37997,5.5582414 17.449939,4.0039087 17.05605,0.64768969 16.859681,-1.0254647 16.576701,-2.7873004 16.427192,-3.2674775 c -0.25684,-0.824902 -0.24706,-0.8890729 0.177409,-1.1634369 0.422939,-0.273384 2.489814,-1.1373966 2.720834,-1.1373966 0.0585,0 -0.037,0.204793 -0.21234,0.4550966 -0.342829,0.4894572 -0.442809,2.2068722 -0.128479,2.2068722 0.104659,0 0.756678,-0.3762055 1.448926,-0.8360222 1.733056,-1.1511468 2.667014,-1.5307823 2.892183,-1.1756171 0.359859,0.5675782 0.14239,0.9535839 -0.943428,1.6745344 -1.671916,1.1101162 -2.973782,2.43042547 -2.973052,3.01517401 3.4e-4,0.27270398 0.179619,1.41770069 0.398379,2.54444709 0.218769,1.1267365 0.414789,2.9620933 0.435599,4.0785696 0.0466,2.5003965 -0.0206,2.5754176 -2.307085,2.5754176 -0.879428,0 -1.597776,-0.023 -1.596326,-0.051201 z M -1.229225,8.2619908 C -1.4668444,7.9598964 -1.7121538,7.3275972 -1.7743537,6.8568803 c -0.2180294,-1.6500341 -0.008,-14.7481852 0.2453094,-15.3347538 0.418639,-0.9674941 3.0603826,-2.3543745 3.5506814,-1.8640675 0.1607596,0.160763 0.0724,0.4504369 -0.3167093,1.0384555 -0.405019,0.6120489 -0.5701886,1.1796972 -0.6620484,2.2753432 -0.12060966,1.438691 -0.11527967,1.4597513 0.3680391,1.4544012 0.2697294,-0.003 1.7298858,-0.4144261 3.2448021,-0.9143034 1.5149163,-0.4998873 2.7784832,-0.8847929 2.8079232,-0.8553424 0.0294,0.0294 -0.1135598,0.3282748 -0.3177793,0.6640897 -0.2137194,0.3514451 -1.0577774,1.0102347 -1.9888551,1.5522926 -0.8896578,0.5179476 -2.1243548,1.3227893 -2.7437633,1.7885361 -1.3611967,1.023515 -1.3963366,1.1674071 -1.41817653,5.8072648 -0.0139,2.9634132 0.0180999,3.2583175 0.39435903,3.634623 0.4839588,0.4839771 0.393499,0.478567 1.9452552,0.1163817 L 4.5632608,5.9330568 3.7442028,6.6350971 C 2.3074264,7.8666151 0.9995896,8.6087059 0.08415179,8.7118974 -0.68841632,8.7989987 -0.85051592,8.7434978 -1.229225,8.2619908 Z M 47.057727,7.8951255 c 0.007,-0.3064945 1.209597,-1.6681844 1.349507,-1.5282623 0.179729,0.1797226 -0.16777,1.168847 -0.367319,1.0455252 -0.10818,-0.066901 -0.24732,0.072001 -0.30918,0.3085645 -0.119909,0.4585567 -0.683098,0.6043088 -0.673008,0.1741726 z m 1.134537,-2.3828048 c -0.133749,-0.2164332 0.453149,-0.750191 0.630199,-0.5731384 0.170612,0.1706225 -0.0762,0.754701 -0.31888,0.754701 -0.109509,0 -0.249599,-0.081701 -0.311319,-0.1815626 z m 1.31663,-0.409096 c 0,-0.3086445 0.556079,-0.8961231 0.775878,-0.8196919 0.1285,0.044701 0.009,0.273944 -0.273809,0.5245976 -0.27614,0.2448736 -0.502069,0.3776655 -0.502069,0.2950943 z m 0.10238,-1.6617742 c -0.0696,-0.1126217 -0.029,-0.204773 0.0903,-0.204773 0.119269,0 0.216849,0.092201 0.216849,0.204773 0,0.1126116 -0.0406,0.204763 -0.0903,0.204763 -0.0497,0 -0.147239,-0.092201 -0.216849,-0.204763 z m 1.126207,-0.204773 c 0,-0.1126217 0.0921,-0.204763 0.20476,-0.204763 0.112619,0 0.204759,0.092101 0.204759,0.204763 0,0.1126216 -0.0921,0.204773 -0.204759,0.204773 -0.11262,0 -0.20476,-0.092201 -0.20476,-0.204773 z m -83.946306,-0.0136 c -0.0038,-0.063801 0.08955,-0.6372293 0.207318,-1.2743186 0.278561,-1.50690201 0.01682,-2.47848619 -1.021616,-3.7922254 -0.903537,-1.1430767 -2.557932,-2.0867204 -3.658449,-2.0867204 -1.044593,0 -2.178141,0.7288206 -2.625282,1.6879446 -0.296485,0.6359593 -0.563605,0.8814929 -1.186169,1.0903059 -0.520204,0.17448257 -0.92755,0.20312299 -1.155305,0.081201 -0.515424,-0.275844 -1.401872,-1.3858302 -1.537125,-1.9247281 -0.129255,-0.5150075 0.389973,-1.9585886 0.704463,-1.9585886 0.109171,0 0.67542,-0.4071059 1.258333,-0.9046732 1.017118,-0.8682126 1.128625,-0.9104133 2.766271,-1.0468252 1.661263,-0.1383921 1.74644,-0.1231618 3.217999,0.5753383 1.628104,0.7728113 3.235745,2.3046537 3.78322,3.6048527 0.408572,0.9703141 0.560101,3.23745721 0.284276,4.253282 -0.194449,0.7161305 -1.016571,2.0587901 -1.037934,1.6951248 z M 45.82933,-6.2398008 c -0.816688,-0.4132661 -1.155357,-1.1935075 -0.844158,-1.9448384 0.662858,-1.6003134 3.105472,-1.1543769 3.083863,0.5630082 -0.008,0.6032988 -0.32463,1.0710556 -0.952658,1.4055505 -0.555629,0.2959443 -0.659089,0.2940343 -1.287047,-0.0237 z m 1.462226,-0.4864871 c 0.799658,-0.7236906 0.22408,-2.1183109 -0.874247,-2.1183109 -0.609589,0 -1.208457,0.6314192 -1.208457,1.2741585 0,0.5028174 0.726568,1.1830373 1.263646,1.1830373 0.24454,0 0.613109,-0.1524922 0.819058,-0.3388849 z m -1.468416,-0.889713 c 0,-0.7745213 0.0336,-0.819062 0.617549,-0.819062 0.549118,0 0.612738,0.063001 0.574188,0.5689683 -0.0239,0.3129246 0.0262,0.68151 0.11122,0.819062 0.085,0.137552 0.0668,0.2501036 -0.0404,0.2501036 -0.10722,0 -0.247979,-0.138222 -0.312799,-0.3071544 -0.0648,-0.1689325 -0.21291,-0.3071545 -0.32906,-0.3071545 -0.116149,0 -0.211189,0.138222 -0.211189,0.3071545 0,0.1689324 -0.0921,0.3071544 -0.204759,0.3071544 -0.11263,0 -0.20477,-0.3685853 -0.20477,-0.8190719 z m 0.908178,-0.4309963 c -0.17868,-0.2891142 -0.498649,-0.2137731 -0.498649,0.1174217 0,0.1826727 0.12011,0.2546237 0.305969,0.1833127 0.16828,-0.064601 0.25499,-0.1999129 0.19268,-0.3007344 z"
       id="path1" /></g></svg>
